<svg xmlns="http://www.w3.org/2000/svg" width="80" height="80"><rect width="100%" height="100%" fill="none"/><g class="currentLayer"><g><g fill="#0fa862"><path d="M35.36 61.665c-1.303 0-2.474-.912-2.735-2.213l-6.248-29.29c-.26-1.562.65-2.994 2.083-3.254 1.562-.26 2.994.65 3.254 2.082l6.249 29.29c.26 1.562-.651 2.994-2.083 3.254-.13 0-.26.13-.52.13zM56.968 61.665h-.65c-1.563-.26-2.474-1.823-2.083-3.255l6.378-29.42c.26-1.562 1.823-2.473 3.255-2.082 1.562.26 2.473 1.822 2.082 3.254l-6.248 29.29c-.26 1.301-1.432 2.213-2.734 2.213zM46.294 61.014c-1.562 0-2.604-1.302-2.604-2.734V28.99c0-1.562 1.042-1.432 2.604-1.432s2.603 0 2.603 1.432v29.29c0 1.562-1.041 2.734-2.603 2.734z"/></g><path d="M79.88 29.902c.26-.781.13-1.693-.391-2.474-.521-.65-1.302-1.171-2.213-1.171H15.182c-.911 0-1.693.39-2.213 1.171s-.651 1.562-.39 2.474l6.378 20.437.39 1.172 2.734 9.112c.39 1.172 1.432 2.213 2.604 2.213h42.958c1.171 0 2.343-1.041 2.603-2.213l2.734-8.982.39-1.172 6.51-20.567zM22.34 41.878h47.775l-1.562 5.207h-44.65l-1.563-5.207zm51.03-10.414l-1.563 5.207H20.52l-1.562-5.207H73.37zM26.766 56.197l-1.171-3.905h41.266l-1.172 3.905H26.767z" fill="#1ad85a"/><path d="M77.146 27.558H15.182c-.911 0-1.693.391-2.213 1.042-.26.26-.39.65-.39 1.041v.13l6.378 20.568.39 1.172 2.734 9.112c.39 1.172 1.432 2.213 2.604 2.213h42.958c1.171 0 2.343-1.041 2.603-2.213l2.734-8.982.39-1.172 6.38-20.437v-.26c-.131-.391-.261-.651-.391-1.042-.391-.781-1.302-1.172-2.213-1.172zM66.862 53.594l-1.172 3.905H26.767l-1.171-3.905h.39l-.39-1.302h41.266l-.39 1.302h.39zm3.254-10.414l-1.562 5.207h-44.65L22.34 43.18h.391l-.39-1.302h47.774l-.39 1.302h.39zm3.254-10.415l-1.562 5.208H20.52l-1.562-5.208h.39l-.39-1.301H73.37l-.39 1.301h.39z" fill="#19bf55"/><path d="M69.205 71.818H23.253c-1.562 0-2.734-1.041-2.734-2.603s1.302-2.604 2.734-2.604h45.952c1.562 0 2.734 1.042 2.734 2.604s-1.172 2.603-2.734 2.603z" fill="#72b1b7"/><path d="M25.596 71.818H43.82c0-1.301-2.603-3.905-5.467-5.207H28.59c-1.953 1.302-2.994 3.906-2.994 5.207z" fill="#5d9ba5"/><path d="M39.525 72.339c0 3.905-3.125 7.42-7.03 7.42s-7.03-3.645-7.03-7.42a7 7 0 0 1 7.03-7.03 7 7 0 0 1 7.03 7.03z" fill="#c43700"/><path d="M39.525 72.339c0 3.905-3.125 7.03-7.03 7.03s-7.03-3.125-7.03-7.03 3.125-7.55 7.03-7.55c3.905 0 7.03 3.645 7.03 7.55z" fill="#ff9d00"/><circle cx="32.495" cy="72.339" r="7.03" fill="#ff5b00"/><path d="M27.548 67.392c2.734-2.733 7.16-2.733 9.894 0s2.734 7.16 0 9.894" fill="#d40"/><path d="M32.495 76.505c-2.343 0-4.165-1.823-4.165-4.166s1.822-4.166 4.165-4.166 4.166 1.823 4.166 4.166c0 2.213-1.823 4.166-4.166 4.166z" fill="#ebf0f2"/><path d="M35.49 69.345c1.561 1.562 1.561 4.296 0 5.858s-4.297 1.562-5.859 0" fill="#cadfe5"/><path d="M51.24 71.818h18.225c0-1.301-2.603-3.905-5.467-5.207h-9.894c-1.692 1.302-2.863 3.906-2.863 5.207z" fill="#5d9ba5"/><path d="M65.17 72.339c0 3.905-3.125 7.42-7.03 7.42s-7.03-3.645-7.03-7.42a7 7 0 0 1 7.03-7.03 7 7 0 0 1 7.03 7.03z" fill="#c43700"/><path d="M65.17 72.339c0 3.905-3.125 7.03-7.03 7.03s-7.03-3.125-7.03-7.03 3.125-7.55 7.03-7.55c3.905 0 7.03 3.645 7.03 7.55z" fill="#ff9d00"/><circle cx="58.27" cy="72.339" r="7.03" fill="#ff5b00"/><path d="M53.323 67.392c2.734-2.733 7.16-2.733 9.894 0s2.733 7.16 0 9.894" fill="#d40"/><path d="M58.27 76.505c-2.343 0-4.166-1.823-4.166-4.166s1.823-4.166 4.166-4.166 4.166 1.823 4.166 4.166c-.13 2.213-1.953 4.166-4.166 4.166z" fill="#ebf0f2"/><path d="M61.134 69.345c1.562 1.562 1.562 4.296 0 5.858s-4.296 1.562-5.858 0" fill="#cadfe5"/><path d="M16.923 19.585a2.611 2.611 0 0 1-2.604 2.604H2.604A2.611 2.611 0 0 1 0 19.585a2.611 2.611 0 0 1 2.604-2.603h11.715a2.611 2.611 0 0 1 2.604 2.603z" fill="#1b5a89"/><path d="M2.473 16.982C1.302 16.982.26 18.023 0 19.064c.39 1.172 1.172 1.823 2.473 1.823H14.19c1.172 0 2.343-.781 2.734-1.953-.39-1.301-1.432-1.952-2.734-1.952H2.473z" fill="#18456d"/></g></g></svg>