<svg xmlns="http://www.w3.org/2000/svg" width="80" height="80"><rect width="100%" height="100%" fill="none"/><g class="currentLayer"><g><path fill="#bdac92" d="M51.09 37.76H28.675V22.158l11.207-7.716 11.206 7.716z"/><path fill="#bdac92" d="M51.09 37.76H28.675V22.158l11.207-7.716 11.206 7.716z"/><path fill="#a8da64" d="M.031 75.004h18.894v4.857H.031z"/><path fill="#7fa24d" d="M62.274 75.081h17.59v4.857h-17.59z"/><path fill="#dfdee1" d="M62.225 79.861H17.54V48.452l22.343-12.947 22.342 12.947z"/><path fill="#aeacb3" d="M39.965 35.352v44.656h22.342V48.387z"/><path d="M39.883 58.234a1.856 1.856 0 0 1-1.857-1.856V40.041a1.856 1.856 0 1 1 3.713 0v16.337a1.856 1.856 0 0 1-1.856 1.856zM39.883 18.808c-1.026 0-1.857-.745-1.857-1.665V2.491c0-.92.831-1.665 1.857-1.665 1.025 0 1.856.745 1.856 1.665v14.652c0 .92-.831 1.665-1.856 1.665z" fill="#533f29"/><g fill="#7e6142"><path d="M43.967 46.725h-8.168a1.856 1.856 0 1 1 0-3.713h8.168a1.856 1.856 0 1 1 0 3.713zM44.618 62.943h-9.471a1.821 1.821 0 0 0-1.821 1.821v15.097H46.44V64.764a1.821 1.821 0 0 0-1.822-1.821z"/></g><path d="M44.754 62.943h-9.47a1.821 1.821 0 0 0-1.822 1.821v1.519c0-1.006.815-1.822 1.821-1.822h9.471c1.006 0 1.822.816 1.822 1.822v-1.519a1.821 1.821 0 0 0-1.822-1.821z" fill="#533f29"/><path fill="#a38a67" d="M39.868 12.069v23.318h11.206V19.785z"/><path d="M44.754 62.943H40.02V79.86h6.557V64.764a1.821 1.821 0 0 0-1.822-1.821z" fill="#533f29"/><path d="M17.54 51.669l22.343-15.875L62.225 51.67V45.71L41.289 30.835a2.428 2.428 0 0 0-2.813 0L17.54 45.71v5.959z" fill="#aeacb3"/><path d="M68.18 52.758c-.487 0-.978-.145-1.405-.449L39.883 33.201 12.99 52.31a2.428 2.428 0 1 1-2.814-3.96l28.3-20.107a2.428 2.428 0 0 1 2.813 0l28.3 20.108a2.428 2.428 0 0 1-1.409 4.408z" fill="#ff4b00"/><path d="M28.676 23.15v5.957l11.207-7.962 11.206 7.962V23.15l-9.8-6.963a2.428 2.428 0 0 0-2.813 0l-9.8 6.963z" fill="#917857"/><path d="M25.69 26.956a2.429 2.429 0 0 1-1.409-4.408l14.195-10.086a2.428 2.428 0 0 1 2.813 0l14.195 10.086a2.428 2.428 0 1 1-2.813 3.96L39.883 17.42l-12.789 9.086a2.416 2.416 0 0 1-1.404.45z" fill="#f90"/><path d="M25.69 26.956a2.429 2.429 0 0 1-1.409-4.408l14.195-10.086a2.428 2.428 0 0 1 2.813 0l14.195 10.086a2.428 2.428 0 1 1-2.813 3.96L39.883 17.42l-12.789 9.086a2.416 2.416 0 0 1-1.404.45z" fill="#f90"/><path d="M43.967 7.258h-8.169a1.856 1.856 0 1 1 0-3.713h8.169a1.856 1.856 0 1 1 0 3.713z" fill="#7e6142"/></g></g></svg>