<svg xmlns="http://www.w3.org/2000/svg" width="80" height="80"><rect width="100%" height="100%" fill="none"/><g class="currentLayer"><g><path d="M67.54 66.573H12.802v8.829c.883 1.766 12.978 3.62 27.369 3.62s26.133-1.854 27.015-3.62h.354v-8.829z" fill="#07a5a5"/><path d="M39.818 79.022c14.39 0 26.839-1.854 27.722-3.62v-8.829H12.802" fill="#028184"/><path d="M67.54 57.744H12.802v8.83c.883 1.765 12.978 3.619 27.369 3.619s26.133-1.854 27.015-3.62h.354v-8.829z" fill="#f9a035"/><path d="M39.73 70.193c14.39 0 26.927-1.854 27.81-3.62v-8.829H12.802" fill="#ed5e0f"/><path d="M67.54 48.916l-54.738-.177v9.005c.883 1.766 12.978 3.62 27.369 3.62s26.133-1.854 27.015-3.62h.354v-8.828z" fill="#d33cac"/><path d="M39.994 61.364c14.303 0 26.663-1.854 27.546-3.62V48.74l-54.738.177" fill="#ad1591"/><path d="M67.275 48.74c0 2.118-12.096 3.884-27.104 3.884S12.8 50.858 12.8 48.739s12.45-3.884 27.37-3.884 27.104 1.677 27.104 3.884z" fill="#f77fc7"/><path d="M40.17 44.855c14.921 0 27.37 1.765 27.37 3.884s-12.449 3.797-27.37 3.797" fill="#e260ba"/><ellipse cx="40.171" cy="47.415" rx="18.01" ry="2.56" fill="#ba4a9d"/><path d="M40.17 44.855c9.977 0 18.011 1.147 18.011 2.56s-8.122 2.56-18.01 2.56" fill="#a03589"/><path d="M29.841 29.67c.088 5.385-4.326 8.475-1.677 13.86 1.5 3.09 5.12 3.708 9.27 4.15h.088c2.649-3.267 4.591-6.269 3.443-9.535-2.03-5.739-7.24-4.68-11.124-8.476z" fill="#82c60a"/><path d="M37.434 47.592c2.737-3.267 4.679-6.357 3.531-9.535-2.03-5.65-7.328-4.591-11.124-8.388h-.088" fill="#5ea304"/><g fill="#74b208"><path d="M33.196 37.615l-3.62-.618 4.15 1.678 1.589-4.062zM35.756 43.619L32.136 43l4.062 1.677 1.677-4.061z"/><path d="M34.52 40.529l-4.15-.618 4.592 1.854 1.854-4.68z"/></g><path d="M18.276 41.235c3.266 3.002 2.648 7.328 7.24 8.74 2.648.795 5.031-.97 7.592-3.266-.53-3.355-1.148-6.269-3.708-7.328-4.415-1.942-6.71 1.766-11.124 1.854z" fill="#82c60a"/><path d="M33.196 46.709c-.53-3.355-1.148-6.269-3.708-7.416-4.414-1.943-6.798 1.765-11.124 1.942" fill="#5ea304"/><g fill="#74b208"><path d="M24.897 43.707l-2.384 1.854 3.267-1.59-1.5-3.178zM29.841 45.473l-2.384 1.854 3.267-1.501-1.5-3.267z"/><path d="M27.28 44.59l-2.648 2.03 3.708-1.677-1.765-3.708z"/></g><path d="M48.028 43.089c0 5.12-3.531 4.326-7.857 4.326s-7.858.795-7.858-4.326 3.532-11.477 7.858-11.477 7.857 6.356 7.857 11.477z" fill="#af0547"/><path d="M40.17 31.612c4.327 0 7.858 6.356 7.858 11.477s-3.531 4.326-7.857 4.326" fill="#84003c"/><ellipse cx="40.171" cy="47.592" rx="3.531" ry=".53" fill="#5ea304"/><path d="M40.17 47.062c1.943 0 3.532.265 3.532.53s-1.589.53-3.531.53" fill="#527c00"/><g fill="#680034"><circle cx="36.021" cy="42.736" r=".618"/><circle cx="34.962" cy="45.296" r=".618"/><circle cx="37.964" cy="40.44" r=".618"/><circle cx="35.845" cy="38.233" r=".53"/><circle cx="34.52" cy="40.529" r=".53"/><circle cx="38.758" cy="37.174" r=".441"/><circle cx="37.081" cy="35.496" r=".441"/><circle cx="39.023" cy="33.642" r=".353"/><circle cx="38.67" cy="45.031" r=".618"/></g><g fill="#c1145a"><circle cx="44.32" cy="42.736" r=".618"/><circle cx="45.38" cy="45.296" r=".618"/><circle cx="42.378" cy="40.44" r=".618"/><circle cx="44.497" cy="38.233" r=".53"/><circle cx="45.821" cy="40.529" r=".53"/><circle cx="41.583" cy="37.174" r=".441"/><circle cx="43.261" cy="35.496" r=".441"/><circle cx="41.318" cy="33.642" r=".353"/><circle cx="41.672" cy="45.031" r=".618"/></g><path d="M63.125 28.08c-1.5-.706-3.178-.441-3.796.795l-9.094 18.187-.088.088h6.798l7.858-15.715c.618-1.148-.177-2.56-1.678-3.355z" fill="#c4b37e"/><path d="M53.414 47.15h-3.267 6.798l7.858-15.715c.618-1.148-.177-2.56-1.678-3.355" fill="#aa945e"/><path fill="#823061" d="M56.769 33.995h6.798l1.324-2.648h-6.798z"/><path fill="#680034" d="M63.567 33.995l1.324-2.648h-6.71"/><path fill="#823061" d="M54.65 38.321l6.71.089 1.324-2.737h-6.71z"/><path fill="#680034" d="M61.448 38.233l1.236-2.56h-6.622"/><path fill="#823061" d="M52.443 42.736h6.798l1.236-2.649h-6.71z"/><path fill="#680034" d="M59.24 42.736l1.237-2.649h-6.18"/><path fill="#823061" d="M57.033 47.15l1.325-2.649H51.56l-1.413 2.65z"/><path fill="#680034" d="M57.033 47.15l1.325-2.649h-6.71"/><ellipse transform="scale(-.11036) rotate(84.532 -313.267 477.098)" cx="-1070.084" cy="647.668" rx="4.8" ry="12.801" fill="#d8caa4"/><g fill="#f2c0e3"><ellipse transform="rotate(-98.517 -88.126 -13.698) scale(.11036)" cx="-1494.692" cy="742.508" rx="8.8" ry="30.401"/><path d="M15.45 56.155c0 .442-.264.707-.706.707h-.353c-.441 0-.706-.265-.706-.707V51.3c0-.354.265-.618.706-.618h.441c.354 0 .618.264.618.706v4.767z"/></g><path d="M15.45 64.984c0 .441-.264.706-.706.706h-.353c-.441 0-.706-.265-.706-.706v-4.856c0-.353.265-.618.706-.618h.441c.354 0 .618.265.618.707v4.767z" fill="#f7c937"/><path d="M15.45 73.813c0 .441-.264.706-.706.706h-.353c-.441 0-.706-.265-.706-.706v-4.856c0-.353.265-.618.706-.618h.441c.354 0 .618.265.618.706v4.768z" fill="#3ec6bf"/></g></g></svg>