<svg xmlns="http://www.w3.org/2000/svg" version="1" width="80" height="80"><rect width="100%" height="100%" fill="none"/><g class="currentLayer"><g><path fill="#fff999" d="M3.972 36.091h72.044v36.022H3.972z"/><path fill="#a09c5e" d="M3.972 72.113h72.044v7.584H3.972z"/><path fill="#ed6e16" d="M45.682 45.57h22.751v34.126H45.682z"/><path fill="#E3F2FD" d="M11.556 45.57h26.543v20.855H11.556z"/><path fill="#1E88E5" d="M13.451 47.466h22.751v17.063H13.451z"/><path fill="#b75514" d="M63.693 63.581c-.57 0-.948.38-.948.948v3.792c0 .569.379.948.948.948s.948-.38.948-.948v-3.792c0-.569-.38-.948-.948-.948z"/><g fill="#af5113"><circle cx="39.994" cy="36.091" r="5.688"/><circle cx="62.745" cy="36.091" r="5.688"/><circle cx="17.243" cy="36.091" r="5.688"/></g><path fill="#ed6e16" d="M70.328 11.444H9.66a3.803 3.803 0 0 0-3.792 3.792v5.688H74.12v-5.688a3.803 3.803 0 0 0-3.792-3.792zM34.306 20.924h11.375v15.167H34.306zM64.64 20.924h-9.479l1.896 15.167h11.375zM15.347 20.924h9.48L22.93 36.09H11.556z"/><g fill="#af5113"><circle cx="51.369" cy="36.091" r="5.688"/><path d="M79.808 36.09c0 3.224-2.465 5.688-5.688 5.688s-5.688-2.464-5.688-5.687 2.465-5.688 5.688-5.688l5.688 5.688z"/><circle cx="28.619" cy="36.091" r="5.688"/><path d="M.18 36.09c0 3.224 2.465 5.688 5.688 5.688s5.688-2.464 5.688-5.687-2.465-5.688-5.688-5.688L.18 36.091z"/></g><g fill="#ed6e16"><path d="M55.161 20.924h-9.48V36.09h11.376zM74.12 20.924h-9.48l3.792 15.167h11.376zM24.827 20.924h9.48V36.09H22.93zM5.868 20.924h9.48L11.555 36.09H.18z"/></g></g></g></svg>