<svg xmlns="http://www.w3.org/2000/svg" width="80" height="80"><rect width="100%" height="100%" fill="none"/><g class="currentLayer"><g><path d="M55.509 2.35c-10.963 0-19.938 13.49-20.683 30.571 5.675 4.473 12.863 7.147 20.683 7.147s15.008-2.674 20.684-7.147C75.447 15.84 66.473 2.35 55.509 2.35z" fill-rule="evenodd" clip-rule="evenodd" fill="#d9eced"/><ellipse transform="rotate(-76.956 42.233 44.935) scale(.4395)" cx="170.916" cy="97.576" rx="5.761" ry="3.687" fill-rule="evenodd" clip-rule="evenodd" fill="#e7b791"/><ellipse transform="rotate(-103.044 13.988 35.515) scale(.4395)" cx="80.201" cy="115.399" rx="5.761" ry="3.687" fill-rule="evenodd" clip-rule="evenodd" fill="#e7b791"/><path d="M38.764 26.903c5.31 1.572 13.868 7.497 19.109 14.18l1.511-1.238c-3.399-5.77-9.999-12.725-13.773-15.046-1.942-1.194-6.098.194-6.847 2.104z" fill-rule="evenodd" clip-rule="evenodd" fill="#1a1a1a"/><g fill-rule="evenodd" clip-rule="evenodd" fill="#323232"><path d="M36.847 78.169L35.37 46.402h6.842L40.783 78.17h-3.936z"/><path d="M30.433 78.169l-1.48-31.767h6.843L34.369 78.17h-3.936z"/></g><path fill-rule="evenodd" clip-rule="evenodd" fill="#1a1a1a" d="M28.375 46.803h14.326v1.485H28.375z"/><path d="M42.702 47.504l2.491-22.955-5.59-2.444h-8.04c-1.865.815-4.457 1.483-5.592 2.444l2.404 22.955h14.327z" fill-rule="evenodd" clip-rule="evenodd" fill="#323232"/><path fill-rule="evenodd" clip-rule="evenodd" fill="#f5f0f0" d="M31.562 22.105l4.017 19.339 4.023-19.339z"/><g fill-rule="evenodd" clip-rule="evenodd" fill="#1a1a1a"><path d="M31.562 22.105l-3.77 4.23 4.36 3.74-3.115 2.024 6.542 9.345z"/><path d="M39.602 22.105l3.765 4.23-4.36 3.74 3.114 2.024-6.542 9.345z"/></g><path fill-rule="evenodd" clip-rule="evenodd" fill="#1a1a1a" d="M35.087 47.504h1.09V40.59l-.598.567-.492-.467z"/><path fill-rule="evenodd" clip-rule="evenodd" fill="#f5f0f0" d="M31.562 22.105l2.59-2.55 1.48 2.55-3.337 3.524z"/><path fill-rule="evenodd" clip-rule="evenodd" fill="#f5f0f0" d="M39.602 22.105l-2.526-2.55-1.444 2.55 3.255 3.524z"/><path fill-rule="evenodd" clip-rule="evenodd" fill="#323232" d="M32.295 25.629l3.337-1.762 3.255 1.762-3.255-3.524z"/><path fill-rule="evenodd" clip-rule="evenodd" fill="#323232" d="M35.632 22.105l-1.668 1.762 1.668 4.686 1.668-4.686z"/><path fill-rule="evenodd" clip-rule="evenodd" fill="#323232" d="M35.034 26.874h1.11l1.447 4.9-2.012 9.67-2.008-9.67z"/><path d="M30.462 80.13c2.152 0 3.907-.881 3.907-1.962s-1.755-1.962-3.907-1.962-3.907.881-3.907 1.962 1.755 1.963 3.907 1.963zM40.754 80.13c2.152 0 3.908-.881 3.908-1.962s-1.756-1.962-3.908-1.962-3.907.881-3.907 1.962 1.756 1.963 3.907 1.963z" fill-rule="evenodd" clip-rule="evenodd" fill="#1a1a1a"/><path d="M35.632 22.1c6.51 0 11.818-4.093 11.818-9.11 0-5.018-5.308-9.11-11.818-9.11-6.509 0-11.818 4.092-11.818 9.11 0 5.017 5.31 9.11 11.818 9.11z" fill-rule="evenodd" clip-rule="evenodd" fill="#e7b791"/><g fill-rule="evenodd" clip-rule="evenodd" fill="#323232"><path d="M30.738 15.38c.362 0 .656-.516.656-1.15 0-.632-.294-1.148-.656-1.148-.362 0-.657.516-.657 1.149s.295 1.15.657 1.15zM37.923 15.38c.362 0 .657-.516.657-1.15 0-.632-.295-1.148-.657-1.148-.361 0-.656.516-.656 1.149s.295 1.15.656 1.15z"/></g><path d="M40.209 2.068c-1.178 4.97 3.685 10.48 7.448 10.368.61-4.1-3.1-9.618-7.448-10.368z" fill-rule="evenodd" clip-rule="evenodd" fill="#5e3a1d"/><path d="M38.757 18.205c-1.7.33-5.862.3-7.8 0 2.002 2.405 6.203 2.488 7.8 0z" fill-rule="evenodd" clip-rule="evenodd" fill="#c79369"/><path d="M49.45 27.266c-3.91 4.147-6.376 10.987-13.052 15.418l1.052 1.513c5.68-2.766 10.96-7.18 13.425-10.557 1.267-1.737-.098-7.782-1.425-6.374zM55.165 26.59c4.002 3.358 9.177 11.704 11.196 19.459l1.773-.502c-.77-6.272-3.861-14.773-6.254-18.201-1.23-1.764-5.347-2.127-6.715-.757z" fill-rule="evenodd" clip-rule="evenodd" fill="#e7b791"/><g fill-rule="evenodd" clip-rule="evenodd" fill="#e7b791"><path d="M56.711 78.28l-1.395-29.97h6.455l-1.346 29.97H56.71z"/><path d="M50.66 78.28l-1.395-29.97h6.455l-1.346 29.97H50.66z"/></g><path fill-rule="evenodd" clip-rule="evenodd" fill="#c79369" d="M52.962 21.232h5.113v7.215h-5.113z"/><path d="M58.699 41.643l2.931-14.598-3.556-1.554h-5.112c-1.185.607-2.794 1.018-3.556 1.821l2.892 14.33h6.4z" fill-rule="evenodd" clip-rule="evenodd" fill="#e7b791"/><path d="M50.687 80.13c2.03 0 3.686-.831 3.686-1.85 0-1.02-1.656-1.852-3.686-1.852-2.03 0-3.686.832-3.686 1.851 0 1.02 1.656 1.852 3.686 1.852zM60.398 80.13c2.03 0 3.686-.831 3.686-1.85 0-1.02-1.656-1.852-3.686-1.852-2.03 0-3.687.832-3.687 1.851 0 1.02 1.656 1.852 3.687 1.852z" fill-rule="evenodd" clip-rule="evenodd" fill="#f5f0f0"/><path d="M69.702 46.298c.286.612.077.932-.4.97.536.845.264 1.87-.212 2.093-.926.433-2.154-.236-2.742-1.494-.589-1.258-.315-2.63.612-3.063.926-.433 2.154.236 2.742 1.494z" fill-rule="evenodd" clip-rule="evenodd" fill="#e7b791"/><path d="M26.231 24.22c1.26 5.226 4.255 12.905 8.741 17.808l-.706 1.572c-3.817-3.108-7.366-8.779-9.022-12.434-.852-1.88-.182-6.103.987-6.947z" fill-rule="evenodd" clip-rule="evenodd" fill="#1a1a1a"/><path d="M37.126 42.456c.537.473.468.873.021 1.111.88.596 1.048 1.707.68 2.124-.717.813-2.193.682-3.298-.293-1.104-.974-1.417-2.423-.7-3.235.717-.813 2.193-.682 3.297.293z" fill-rule="evenodd" clip-rule="evenodd" fill="#e7b791"/><path d="M35.093 42.55c-.506.447-.442.823-.02 1.049-.829.561-.988 1.61-.64 2.004.676.766 2.068.642 3.11-.277 1.041-.919 1.337-2.285.66-3.052-.676-.767-2.069-.643-3.11.276z" fill-rule="evenodd" clip-rule="evenodd" fill="#e7b791"/><path d="M59.64 41.643l1.434-9.48c.026-.116.039-.235.039-.356 0-1.232-1.354-2.23-3.025-2.23-1.09 0-2.047.425-2.579 1.063-.532-.638-1.488-1.064-2.579-1.064-1.671 0-3.025 1-3.025 2.231 0 .117.012.233.035.345l1.403 9.49h8.297z" fill-rule="evenodd" clip-rule="evenodd" fill="#f5f0f0"/><path d="M55.509 40.56c-10.963 0-19.938 13.49-20.683 30.572 5.675 4.473 12.863 7.147 20.683 7.147s15.008-2.674 20.684-7.147c-.746-17.081-9.72-30.572-20.684-30.572z" fill-rule="evenodd" clip-rule="evenodd" fill="#f5f0f0"/><path d="M59.865 42.984c.658 0 1.195-.86 1.195-1.914 0-1.053-.537-1.913-1.195-1.913s-1.194.86-1.194 1.913c0 1.054.536 1.914 1.194 1.914z" fill-rule="evenodd" clip-rule="evenodd" fill="#e7b791"/><path d="M14.537 47.447l13.401-2.698 3.605-.726 6.562-1.321.298 1.478-6.562 1.322.298 1.478c-5.33 1.394-14.837 3.533-17.602.467z" fill-rule="evenodd" clip-rule="evenodd" fill="#d9eced"/><g fill-rule="evenodd" clip-rule="evenodd" fill="#f5f0f0"><path d="M13.363 26.057H21.1a2.535 2.535 0 0 1 2.528 2.528v9.997H10.835v-9.997a2.536 2.536 0 0 1 2.528-2.528z"/><path d="M10.938 35.963h12.586a2.536 2.536 0 0 1 2.529 2.528v9.996H8.409v-9.996a2.536 2.536 0 0 1 2.529-2.528z"/><path d="M8.13 46.19h18.202a2.536 2.536 0 0 1 2.528 2.528v9.997H5.601v-9.997A2.536 2.536 0 0 1 8.13 46.19z"/></g><path d="M36.177 46.345c1.059 0 1.922-.73 1.922-1.624 0-.895-.863-1.624-1.922-1.624-1.06 0-1.923.73-1.923 1.624 0 .894.864 1.624 1.923 1.624z" fill-rule="evenodd" clip-rule="evenodd" fill="#e7b791"/><path fill-rule="evenodd" clip-rule="evenodd" fill="#1a1a1a" d="M3.544 58.715h27.373v2.352H3.544z"/><path fill-rule="evenodd" clip-rule="evenodd" fill="#1a1a1a" d="M14.811 58.715h4.84v19.699h-4.84z"/><path fill-rule="evenodd" clip-rule="evenodd" fill="#1a1a1a" d="M10.888 77.778h12.685v2.352H10.888z"/><path d="M10.835 35.965a.544.544 0 0 1 0-1.088c.164 0 .313-.445.467-.904.293-.877.596-1.784 1.665-1.784 1.07 0 1.373.907 1.666 1.784.154.46.302.904.466.904.165 0 .313-.445.467-.904.293-.877.596-1.784 1.666-1.784 1.069 0 1.372.907 1.665 1.784.154.46.303.904.467.904s.313-.445.467-.904c.293-.877.596-1.784 1.665-1.784 1.07 0 1.373.907 1.666 1.784.153.46.302.904.466.904a.544.544 0 1 1 0 1.088c-.944 0-1.215-.81-1.495-1.648-.171-.51-.348-1.04-.637-1.04-.289 0-.466.53-.637 1.04-.28.838-.55 1.648-1.495 1.648-.945 0-1.215-.81-1.495-1.648-.171-.51-.348-1.04-.637-1.04s-.466.53-.637 1.04c-.28.838-.55 1.648-1.495 1.648-.944 0-1.215-.81-1.495-1.648-.171-.51-.348-1.04-.637-1.04-.29 0-.466.53-.637 1.04-.28.838-.551 1.648-1.496 1.648zM8.409 46.19a.544.544 0 0 1 0-1.088c.189 0 .343-.447.503-.908.302-.875.615-1.78 1.703-1.78s1.4.905 1.703 1.78c.16.461.314.908.502.908.189 0 .343-.447.503-.908.302-.875.615-1.78 1.702-1.78 1.088 0 1.4.906 1.703 1.78.16.461.315.908.503.908s.343-.447.502-.908c.303-.875.616-1.78 1.703-1.78 1.088 0 1.401.905 1.704 1.78.16.461.313.908.502.908.188 0 .343-.447.502-.908.303-.875.616-1.78 1.703-1.78 1.088 0 1.401.905 1.703 1.78.16.461.314.908.503.908a.544.544 0 1 1 0 1.088c-.958 0-1.238-.809-1.527-1.644-.177-.513-.361-1.044-.679-1.044-.317 0-.501.531-.678 1.044-.289.835-.569 1.644-1.527 1.644-.959 0-1.238-.809-1.527-1.644-.177-.513-.36-1.044-.679-1.044-.317 0-.501.531-.678 1.044-.289.835-.569 1.644-1.527 1.644s-1.238-.808-1.527-1.644c-.177-.513-.361-1.044-.679-1.044-.317 0-.5.531-.678 1.044-.289.835-.569 1.644-1.527 1.644s-1.238-.809-1.527-1.644c-.177-.513-.36-1.044-.678-1.044-.317 0-.501.531-.679 1.044-.289.835-.568 1.644-1.527 1.644zM5.601 58.715a.544.544 0 1 1 0-1.088c.226 0 .39-.451.56-.917.318-.87.646-1.771 1.766-1.771s1.449.901 1.766 1.771c.17.466.335.917.56.917.226 0 .39-.451.56-.917.317-.87.646-1.771 1.766-1.771s1.449.901 1.766 1.771c.17.466.335.917.56.917s.39-.451.56-.917c.317-.87.646-1.771 1.767-1.771 1.12 0 1.448.901 1.765 1.771.17.466.335.917.56.917.226 0 .39-.451.56-.917.318-.87.646-1.771 1.766-1.771s1.449.901 1.766 1.771c.17.466.335.917.56.917.226 0 .39-.451.56-.917.317-.87.646-1.771 1.766-1.771s1.448.901 1.766 1.771c.17.466.334.917.56.917a.545.545 0 0 1 0 1.088c-.984 0-1.277-.804-1.58-1.635-.19-.518-.385-1.053-.747-1.053-.361 0-.557.535-.745 1.053-.303.83-.596 1.635-1.58 1.635-.984 0-1.278-.804-1.58-1.635-.189-.518-.385-1.053-.746-1.053-.362 0-.558.535-.746 1.053-.303.83-.596 1.635-1.58 1.635-.984 0-1.277-.804-1.58-1.635-.189-.518-.384-1.053-.746-1.053s-.558.535-.746 1.053c-.303.83-.596 1.635-1.58 1.635-.984 0-1.277-.804-1.58-1.635-.188-.518-.384-1.053-.746-1.053-.361 0-.556.535-.745 1.053-.303.83-.597 1.635-1.58 1.635-.984 0-1.278-.804-1.58-1.635-.189-.518-.385-1.053-.746-1.053-.362 0-.557.535-.746 1.053-.303.83-.597 1.635-1.58 1.635z" fill="#ccc"/><g clip-rule="evenodd"><g fill-rule="evenodd"><ellipse transform="rotate(-76.938 14.937 52.576) scale(.43949)" cx="108.822" cy="114.927" rx=".518" ry=".332" fill="#e7b791"/><ellipse transform="matrix(-.09906 -.4282 .4282 -.09906 -32.912 62.077)" cx="67.101" cy="134.961" rx=".518" ry=".331" fill="#e7b791"/><path d="M18.41 21.164c-.179.464-.603 1.067-1.239 1.49l.1.143c.542-.263 1.044-.684 1.279-1.005.12-.166.026-.548-.14-.628zM19.557 21.37c.477.14 1.246.673 1.717 1.274l.136-.111c-.305-.519-.898-1.144-1.237-1.352-.175-.108-.548.017-.616.189z" fill="#1a1a1a"/><g fill="#323232"><path d="M19.385 25.976l-.133-2.855h.615l-.128 2.855h-.354z"/><path d="M18.809 25.976l-.133-2.855h.615l-.129 2.855h-.353z"/></g><path fill="#1a1a1a" d="M18.624 23.157h1.287v.134h-1.287z"/><path d="M19.911 23.22l.224-2.062-.502-.22h-.723c-.167.074-.4.133-.503.22l.216 2.062h1.288z" fill="#323232"/><path fill="#f5f0f0" d="M18.91 20.938l.361 1.738.362-1.738z"/><g fill="#1a1a1a"><path d="M18.91 20.938l-.338.38.391.337-.28.181.588.84zM19.633 20.938l.338.38-.392.337.28.181-.588.84z"/></g><path fill="#1a1a1a" d="M19.227 23.22h.098v-.62l-.054.05-.044-.042z"/><path fill="#f5f0f0" d="M18.91 20.938l.233-.229.133.23-.3.316zM19.633 20.938l-.227-.229-.13.23.292.316z"/><path fill="#323232" d="M18.976 21.255l.3-.158.292.158-.292-.317z"/><path fill="#323232" d="M19.276 20.938l-.15.159.15.42.15-.42z"/><path fill="#323232" d="M19.222 21.367h.1l.13.44-.18.869-.181-.869z"/><ellipse cx="18.812" cy="25.976" rx=".351" ry=".176" fill="#1a1a1a"/><ellipse cx="19.736" cy="25.976" rx=".351" ry=".176" fill="#1a1a1a"/><path d="M21.576 22.538c.047.043.042.079.001.1.08.054.094.154.061.191-.064.073-.197.061-.296-.026-.1-.088-.127-.218-.063-.291.064-.073.197-.061.297.026zM17.006 22.68c-.048.043-.042.08-.001.101-.08.054-.094.153-.061.19.064.074.197.062.296-.026.1-.087.127-.217.063-.29-.064-.074-.197-.062-.297.026zM19.276 20.938c.585 0 1.061-.368 1.061-.819 0-.45-.476-.818-1.061-.818s-1.062.367-1.062.818c0 .451.477.819 1.062.819z" fill="#e7b791"/><g fill="#323232"><ellipse cx="18.953" cy="20.04" rx=".059" ry=".103"/><ellipse cx="19.599" cy="20.04" rx=".059" ry=".103"/></g><path d="M19.784 19.164c-.184.574-1.071 1.008-1.61.79.119-.76 1.027-1.198 1.61-.79z" fill="#5e3a1d"/><path d="M19.687 19.138c-.106.446.33.941.67.932.054-.369-.28-.865-.67-.932z" fill="#5e3a1d"/><path d="M19.626 20.423a2.92 2.92 0 0 1-.7 0c.18.217.557.224.7 0z" fill="#c79369"/></g><g fill-rule="evenodd"><path d="M15.311 19.163c.985 0 1.792 1.212 1.859 2.747a2.995 2.995 0 0 1-1.859.642c-.702 0-1.348-.24-1.858-.642.067-1.534.873-2.747 1.858-2.747z" fill="#d9eced"/><path d="M15.856 21.402c.351.373.573.987 1.172 1.386l-.094.135c-.51-.248-.985-.645-1.206-.948-.114-.156.009-.7.128-.573zM15.31 21.576c-.45.133-1.175.636-1.62 1.202l-.128-.105c.288-.489.848-1.078 1.168-1.275.165-.101.517.017.58.178z" fill="#e7b791"/><g fill="#e7b791"><path d="M15.203 25.986l.125-2.693h-.58l.122 2.693h.333z"/><path d="M15.747 25.986l.125-2.693h-.58l.12 2.693h.335z"/></g><path d="M15.025 22.694l-.263-1.312.319-.14h.46c.106.055.25.092.319.164l-.26 1.288h-.575z" fill="#e7b791"/><ellipse cx="15.745" cy="25.986" rx=".331" ry=".166" fill="#f5f0f0"/><ellipse cx="14.872" cy="25.986" rx=".331" ry=".166" fill="#f5f0f0"/><path d="M13.406 22.679c-.046.04-.04.074-.002.095-.074.05-.088.144-.057.18.06.069.186.057.28-.025.093-.083.12-.206.059-.275-.061-.068-.186-.058-.28.025zM17.146 22.775c.046.04.04.074.002.094.074.05.088.145.057.18-.06.07-.186.058-.28-.024-.093-.083-.12-.206-.059-.274.061-.07.186-.058.28.024zM15.081 20.86h.459v.648h-.459z" fill="#e7b791"/><ellipse cx="15.311" cy="19.815" rx=".613" ry=".607" fill="#5e3a1d"/><ellipse cx="15.311" cy="19.948" rx=".693" ry=".473" fill="#f5f0f0"/><path d="M15.311 20.422c.424 0 .77-.193.77-.43s-.345-.43-.77-.43c-.424 0-.77.193-.77.43s.346.43.77.43z" fill="#5e3a1d"/><path d="M15.306 21.233c.552 0 1.003-.347 1.003-.773 0-.425-.45-.772-1.003-.772-.551 0-1.002.347-1.002.772 0 .426.45.773 1.002.773z" fill="#e7b791"/><g fill="#323232"><ellipse cx="15.611" cy="20.438" rx=".056" ry=".098"/><ellipse cx="15.002" cy="20.438" rx=".056" ry=".098"/></g><path d="M15.657 20.752a2.92 2.92 0 0 1-.701 0c.18.216.558.223.7 0z" fill="#c79369"/><path d="M14.94 22.694l-.129-.852a.156.156 0 0 1-.003-.032c0-.11.121-.2.272-.2.098 0 .183.038.231.095a.303.303 0 0 1 .232-.095c.15 0 .272.09.272.2 0 .01 0 .021-.003.031l-.126.853h-.746z" fill="#f5f0f0"/><path d="M15.311 22.596c.985 0 1.792 1.213 1.859 2.747a2.995 2.995 0 0 1-1.859.642c-.702 0-1.348-.24-1.858-.642.067-1.534.873-2.747 1.858-2.747z" fill="#f5f0f0"/><ellipse transform="rotate(-103.055 4.29 44.601) scale(.43952)" cx="58.123" cy="136.08" rx=".518" ry=".331" fill="#e7b791"/><ellipse transform="rotate(-76.945 10.887 52.975) scale(.43952)" cx="99.598" cy="115.843" rx=".518" ry=".332" fill="#e7b791"/><g fill="#5e3a1d"><path d="M15.241 19.686c.055.432.657.861 1.093.78.022-.553-.596-.987-1.093-.78z"/><path d="M15.359 19.686c-.055.432-.657.861-1.093.78-.022-.553.596-.987 1.093-.78z"/></g></g><g fill="none" stroke="#f5f0f0" stroke-width=".216" stroke-miterlimit="22.926"><path d="M13.225 22.798c-.147.21-.201.534-.149.902M13.33 22.842c-.034.255.067.567.283.869"/></g><path d="M13.884 22.646a.176.176 0 0 1-.024.024.187.187 0 0 1-.15.301.188.188 0 0 1-.309.133.187.187 0 0 1-.322-.096.187.187 0 0 1-.185-.28.188.188 0 0 1 .039-.334.187.187 0 0 1 .245-.231.187.187 0 0 1 .316-.048c.007.007.013.017.019.026a.188.188 0 0 1 .27.2.19.19 0 0 1 .101.304z" fill-rule="evenodd" fill="#f5f0f0"/></g><path d="M44.635 4.754c-5.834-.283-15.29 8.905-21.243 6.44C24.567 4.022 31.977.045 38.245 1.134c2.314.402 4.425 1.152 6.39 3.62z" fill-rule="evenodd" clip-rule="evenodd" fill="#5e3a1d"/><path d="M44.633 4.964C36.425 3.03 25.28 13.43 22.106 3.95c4.069 1.565 4.53.049 8.408-1.982 3.911-2.047 9.75-2.493 14.12 2.996z" fill-rule="evenodd" clip-rule="evenodd" fill="#5e3a1d"/><path d="M45.647 7.013c-7.407-4.03-20.902 3.06-21.46-6.923 3.51 2.584 4.356 1.243 8.632.308 4.313-.943 10.062.168 12.828 6.615zM55.716 15.463c3.757 0 6.821-3.033 6.821-6.751 0-3.719-3.064-6.752-6.82-6.752-3.757 0-6.82 3.033-6.82 6.752 0 3.718 3.063 6.751 6.82 6.751z" fill-rule="evenodd" clip-rule="evenodd" fill="#5e3a1d"/><path d="M55.716 15.463c4.246 0 7.71-2.365 7.71-5.265s-3.464-5.266-7.71-5.266c-4.245 0-7.708 2.365-7.708 5.266s3.463 5.265 7.708 5.265z" fill-rule="evenodd" clip-rule="evenodd" fill="#f5f0f0"/><path d="M55.717 15.463c4.722 0 8.574-2.148 8.574-4.781 0-2.634-3.852-4.782-8.574-4.782-4.723 0-8.574 2.148-8.574 4.782 0 2.633 3.851 4.781 8.574 4.781z" fill-rule="evenodd" clip-rule="evenodd" fill="#5e3a1d"/><path d="M55.66 24.49c5.341 0 9.697-3.861 9.697-8.595S61.001 7.3 55.661 7.3s-9.697 3.861-9.697 8.595 4.356 8.595 9.697 8.595z" fill-rule="evenodd" clip-rule="evenodd" fill="#e7b791"/><g fill-rule="evenodd" clip-rule="evenodd" fill="#323232"><path d="M57.556 18.091c.341 0 .62-.487.62-1.084 0-.597-.279-1.084-.62-1.084-.34 0-.62.487-.62 1.084 0 .597.28 1.084.62 1.084zM50.777 18.091c.341 0 .62-.487.62-1.084 0-.597-.279-1.084-.62-1.084-.34 0-.62.487-.62 1.084 0 .597.28 1.084.62 1.084z"/></g><path d="M58.066 20.496c-1.7.33-5.86.3-7.8 0 2.003 2.405 6.203 2.488 7.8 0z" fill-rule="evenodd" clip-rule="evenodd" fill="#c79369"/><ellipse transform="rotate(-103.044 35.796 40.039) scale(.4395)" cx="129.821" cy="125.692" rx="5.761" ry="3.687" fill-rule="evenodd" clip-rule="evenodd" fill="#e7b791"/><ellipse transform="rotate(-76.956 60.01 48.511) scale(.4395)" cx="211.363" cy="105.713" rx="5.761" ry="3.687" fill-rule="evenodd" clip-rule="evenodd" fill="#e7b791"/><g fill-rule="evenodd" clip-rule="evenodd" fill="#5e3a1d"><path d="M57.837 6.933c.794.471-4.818 2.64-2.546 2.916 5.36.652 8.27 7.785 11.815 6.12-.282-5.672-5.339-9.854-9.27-9.036z"/><path d="M63.997 9.243c-9.38.328-13.658 8.984-19.88 6.382C44.722 7.18 54.6 2.47 63.996 9.243z"/></g></g></g></svg>