<svg xmlns="http://www.w3.org/2000/svg" width="80" height="80"><rect width="100%" height="100%" fill="none"/><g class="currentLayer"><g><path fill="#d15975" d="M13.641 31.015h52.68v26.074h-52.68z"/><path fill="#f36e81" d="M22.42 31.015h35.12v26.074H22.42z"/><path d="M70.71 35.024c0 2.46-2.013 4.55-4.474 4.505a4.39 4.39 0 0 1-4.306-4.39 4.39 4.39 0 1 1-8.78 0 4.39 4.39 0 1 1-8.78 0 4.39 4.39 0 1 1-8.78 0 4.39 4.39 0 1 1-8.78 0 4.39 4.39 0 1 1-8.78 0 4.39 4.39 0 0 1-4.306 4.39c-2.46.046-4.473-2.044-4.473-4.505v-4.43a4.235 4.235 0 0 1 4.234-4.234h52.99a4.235 4.235 0 0 1 4.235 4.234v4.43z" fill="#edb7ab"/><path d="M66.236 35.139a4.39 4.39 0 0 1-4.306-4.39 4.39 4.39 0 1 1-8.78 0 4.39 4.39 0 1 1-8.78 0 4.39 4.39 0 1 1-8.78 0 4.39 4.39 0 1 1-8.78 0 4.39 4.39 0 1 1-8.78 0 4.39 4.39 0 0 1-4.306 4.39c-2.46.046-4.473-2.044-4.473-4.505v4.39c0 2.46 2.013 4.55 4.473 4.505a4.39 4.39 0 0 0 4.306-4.39 4.39 4.39 0 1 0 8.78 0 4.39 4.39 0 1 0 8.78 0 4.39 4.39 0 1 0 8.78 0 4.39 4.39 0 1 0 8.78 0 4.39 4.39 0 1 0 8.78 0 4.39 4.39 0 0 0 4.306 4.39c2.46.046 4.474-2.044 4.474-4.505v-4.39c0 2.461-2.013 4.55-4.474 4.505z" fill="#bdc3c7" opacity=".6"/><circle cx="18.03" cy="50.504" r="2.195" fill="#ecf0f1"/><circle cx="26.81" cy="50.504" r="2.195" fill="#ecf0f1"/><circle cx="35.59" cy="50.504" r="2.195" fill="#ecf0f1"/><circle cx="44.37" cy="50.504" r="2.195" fill="#ecf0f1"/><circle cx="53.15" cy="50.504" r="2.195" fill="#ecf0f1"/><circle cx="61.93" cy="50.504" r="2.195" fill="#ecf0f1"/><path d="M33.196 15.385c0 1.212.983 2.194 2.195 2.194h2.195v8.78h4.39V14.786c0-.882-.715-1.596-1.597-1.596h-4.988a2.195 2.195 0 0 0-2.195 2.195z" fill="#da768e"/><path d="M40.38 13.19h-1.996c.882 0 1.596.714 1.596 1.596v11.573h1.996V14.786c0-.882-.715-1.596-1.597-1.596z" fill="#bdc3c7" opacity=".6"/><path d="M35.99 9.908c0-1.812 3.458-6.563 3.458-6.563s3.459 4.75 3.459 6.563-1.548 3.282-3.459 3.282-3.459-1.47-3.459-3.282z" fill="#f5db91"/><path d="M39.448 3.345s-.4.55-.928 1.346c.591 1.546 1.46 4.021 1.46 5.217 0 1.507-.618 2.773-1.46 3.159.296.078.606.123.928.123 1.91 0 3.459-1.47 3.459-3.282s-3.459-6.563-3.459-6.563z" fill="#bdc3c7" opacity=".6"/><g><path d="M4.86 74.65H75.1V61.79a4.7 4.7 0 0 0-4.7-4.7H9.56a4.7 4.7 0 0 0-4.7 4.7v12.86z" fill="#c63c22"/></g><g><path d="M4.86 74.65H75.1V61.79a4.7 4.7 0 0 0-4.7-4.7H9.56a4.7 4.7 0 0 0-4.7 4.7v12.86z" fill="#f492a6"/></g><g><path d="M13.33 74.65h52.99V61.79a4.7 4.7 0 0 0-4.7-4.7H18.03a4.7 4.7 0 0 0-4.7 4.7v12.86z" fill="#edb7ab"/></g><g><path d="M2.666 79.04h74.63a2.195 2.195 0 0 0 0-4.39H2.665a2.195 2.195 0 0 0 0 4.39z" fill="#5b5869"/></g><g><circle cx="11.446" cy="68.064" r="2.195" fill="#ecf0f1"/><circle cx="22.859" cy="68.064" r="2.195" fill="#ecf0f1"/><circle cx="34.273" cy="68.064" r="2.195" fill="#ecf0f1"/><circle cx="45.687" cy="68.064" r="2.195" fill="#ecf0f1"/><circle cx="57.101" cy="68.064" r="2.195" fill="#ecf0f1"/><circle cx="68.515" cy="68.064" r="2.195" fill="#ecf0f1"/></g></g></g></svg>