<svg xmlns="http://www.w3.org/2000/svg" width="80" height="80"><rect width="100%" height="100%" fill="none"/><g class="currentLayer"><g><g><path d="M60.936 45.615a1.535 1.535 0 0 1-1.404-2.153L64.81 31.45a11.343 11.343 0 0 1 10.383-6.78h2.534a1.535 1.535 0 0 1 0 3.07h-2.534a8.273 8.273 0 0 0-7.573 4.945L62.34 44.697a1.536 1.536 0 0 1-1.405.918zM1.762 39.611c0-14.807 12.004-26.811 26.811-26.811v26.811H1.762z" fill="#eca684"/><path d="M10.175 39.333c0-11.869 7.712-21.934 18.398-25.463V12.8C13.766 12.8 1.762 24.804 1.762 39.61h26.811v-.278H10.175z" fill="#bdc3c7" opacity=".6"/><path d="M54.261 66.423H11.822c-5.556 0-10.06-4.505-10.06-10.061v-16.75h62.56v16.75c0 5.556-4.505 10.06-10.06 10.06z" fill="#998272"/><path d="M60.115 39.611v13.087c0 5.538-4.49 10.028-10.028 10.028H7.583c-1.52 0-2.959-.34-4.25-.945a10.018 10.018 0 0 0 8.457 4.641h42.504c5.538 0 10.028-4.49 10.028-10.028V39.611h-4.207z" fill="#bdc3c7" opacity=".6"/><circle cx="15.168" cy="70.891" r="8.937" fill="#f3f3e9"/><circle cx="50.916" cy="70.891" r="8.937" fill="#f3f3e9"/><circle cx="50.916" cy="70.891" r="3.282" fill="#998272"/><circle cx="15.307" cy="70.891" r="3.282" fill="#998272"/><path d="M19.334 62.984A8.937 8.937 0 0 1 7.597 75.638a8.937 8.937 0 1 0 11.737-12.654zM55.082 62.984a8.937 8.937 0 0 1-11.737 12.654 8.937 8.937 0 1 0 11.737-12.654z" fill="#bdc3c7" opacity=".6"/></g></g></g></svg>