<svg xmlns="http://www.w3.org/2000/svg" xmlns:xlink="http://www.w3.org/1999/xlink" version="1.1" style="" xml:space="preserve" width="80" height="80"><rect id="backgroundrect" width="100%" height="100%" x="0" y="0" fill="none" stroke="none" class="" style=""/>
<g class="currentLayer" style=""><title>Layer 1</title><g id="svg_1" class="">
	<g id="svg_2">
		<g id="svg_3">
			<rect x="13.640500625078266" y="31.015457111393104" style="fill:#D15975;" width="52.67964967133357" height="26.07376599894288" id="svg_4"/>
		</g>
	</g>
	<g id="svg_5">
		<g id="svg_6">
			<rect x="22.420442236967194" y="31.015457111393104" style="fill:#F36E81;" width="35.11976644755572" height="26.07376599894288" id="svg_7"/>
		</g>
	</g>
	<g id="svg_8">
		<g id="svg_9">
			<path style="fill:#EDB7AB;" d="M70.71012110235631,35.02443166314893 c0,2.4605121220226915 -2.0135332763265286,4.550404284488981 -4.473779339512496,4.5041100468990205 c-2.3857495889032734,-0.044697884569616465 -4.306162272376434,-1.992780687062063 -4.306162272376434,-4.389172629434292 c0,2.4245941790649637 -1.9653766268795008,4.389970805944467 -4.389970805944467,4.389970805944467 s-4.389970805944467,-1.9653766268795008 -4.389970805944467,-4.389970805944467 c0,2.4245941790649637 -1.9653766268795008,4.389970805944467 -4.389970805944467,4.389970805944467 s-4.389970805944467,-1.9653766268795008 -4.389970805944467,-4.389970805944467 c0,2.4245941790649637 -1.9653766268795008,4.389970805944467 -4.389970805944467,4.389970805944467 s-4.389970805944467,-1.9653766268795008 -4.389970805944467,-4.389970805944467 c0,2.4245941790649637 -1.9653766268795008,4.389970805944467 -4.389970805944467,4.389970805944467 S26.81041304291166,37.56396325967863 26.81041304291166,35.13936908061366 c0,2.4245941790649637 -1.9653766268795008,4.389970805944467 -4.389970805944467,4.389970805944467 S18.030471431022733,37.56396325967863 18.030471431022733,35.13936908061366 c0,2.39639194237223 -1.92041268347316,4.3444747448646766 -4.306162272376434,4.389172629434292 C11.26406309546033,39.57456988880119 9.250529819133803,37.48494378517162 9.250529819133803,35.02443166314893 l0,-4.430145690289774 c0,-2.338657174803142 1.8959352704945618,-4.234592445297702 4.234858504134427,-4.234592445297702 h52.99014033379037 c2.338657174803142,0 4.234858504134427,1.8959352704945618 4.234858504134427,4.234592445297702 V35.02443166314893 z" id="svg_10"/>
		</g>
	</g>
	<g style="opacity:0.6;" id="svg_11">
		<path style="fill:#BDC3C7;" d="M66.23634176284381,35.13857090410349 c-2.3857495889032734,-0.044697884569616465 -4.306162272376434,-1.992780687062063 -4.306162272376434,-4.389172629434292 c0,2.4245941790649637 -1.9653766268795008,4.389970805944467 -4.389970805944467,4.389970805944467 s-4.389970805944467,-1.9653766268795008 -4.389970805944467,-4.389970805944467 c0,2.4245941790649637 -1.9653766268795008,4.389970805944467 -4.389970805944467,4.389970805944467 s-4.389970805944467,-1.9653766268795008 -4.389970805944467,-4.389970805944467 c0,2.4245941790649637 -1.9653766268795008,4.389970805944467 -4.389970805944467,4.389970805944467 s-4.389970805944467,-1.9653766268795008 -4.389970805944467,-4.389970805944467 c0,2.4245941790649637 -1.9653766268795008,4.389970805944467 -4.389970805944467,4.389970805944467 S26.81041304291166,33.17399245373416 26.81041304291166,30.749398274669197 c0,2.4245941790649637 -1.9653766268795008,4.389970805944467 -4.389970805944467,4.389970805944467 S18.030471431022733,33.17399245373416 18.030471431022733,30.749398274669197 c0,2.39639194237223 -1.92041268347316,4.3444747448646766 -4.306162272376434,4.389172629434292 C11.26406309546033,35.184599082856735 9.250529819133803,33.094972979227165 9.250529819133803,30.63446085720447 v4.389970805944467 c0,2.4605121220226915 2.0135332763265286,4.550404284488981 4.473779339512496,4.5041100468990205 C16.11005874754957,39.48384382547833 18.030471431022733,37.535761022985895 18.030471431022733,35.13936908061366 c0,2.4245941790649637 1.9653766268795008,4.389970805944467 4.389970805944467,4.389970805944467 s4.389970805944467,-1.9653766268795008 4.389970805944467,-4.389970805944467 c0,2.4245941790649637 1.9653766268795008,4.389970805944467 4.389970805944467,4.389970805944467 s4.389970805944467,-1.9653766268795008 4.389970805944467,-4.389970805944467 c0,2.4245941790649637 1.9653766268795008,4.389970805944467 4.389970805944467,4.389970805944467 s4.389970805944467,-1.9653766268795008 4.389970805944467,-4.389970805944467 c0,2.4245941790649637 1.9653766268795008,4.389970805944467 4.389970805944467,4.389970805944467 s4.389970805944467,-1.9653766268795008 4.389970805944467,-4.389970805944467 c0,2.4245941790649637 1.9653766268795008,4.389970805944467 4.389970805944467,4.389970805944467 s4.389970805944467,-1.9653766268795008 4.389970805944467,-4.389970805944467 c0,2.39639194237223 1.92041268347316,4.3444747448646766 4.306162272376434,4.389172629434292 c2.4602460631859677,0.04602817875323597 4.473779339512496,-2.0435979248763303 4.473779339512496,-4.5041100468990205 v-4.389970805944467 C70.71012110235631,33.094972979227165 68.69658782602977,35.184599082856735 66.23634176284381,35.13857090410349 z" id="svg_12"/>
	</g>
	<g id="svg_13">
		<g id="svg_14">
			<circle style="fill:#ECF0F1;" cx="18.030471431022733" cy="50.504266901419285" r="2.1949853897094727" id="svg_15"/>
		</g>
		<g id="svg_16">
			<circle style="fill:#ECF0F1;" cx="26.810413042911662" cy="50.504266901419285" r="2.1949853897094727" id="svg_17"/>
		</g>
		<g id="svg_18">
			<circle style="fill:#ECF0F1;" cx="35.59035465480059" cy="50.504266901419285" r="2.1949853897094727" id="svg_19"/>
		</g>
		<g id="svg_20">
			<circle style="fill:#ECF0F1;" cx="44.370296266689515" cy="50.504266901419285" r="2.1949853897094727" id="svg_21"/>
		</g>
		<g id="svg_22">
			<circle style="fill:#ECF0F1;" cx="53.150237878578444" cy="50.504266901419285" r="2.1949853897094727" id="svg_23"/>
		</g>
		<g id="svg_24">
			<circle style="fill:#ECF0F1;" cx="61.930179490467374" cy="50.504266901419285" r="2.1949853897094727" id="svg_25"/>
		</g>
	</g>
	<g id="svg_26">
		<g id="svg_27">
			<path style="fill:#DA768E;" d="M33.195825124285435,15.384500453863575 L33.195825124285435,15.384500453863575 c0,1.2121640601141201 0.9828213428581123,2.194985402972233 2.194985402972233,2.194985402972233 h2.194985402972233 v8.77994161188893 H41.97576673617436 v-11.573559397489952 c0,-0.8817189849030278 -0.7146340354404145,-1.5963530203434417 -1.5963530203434417,-1.5963530203434417 h-4.988603188573255 C34.17864646714354,13.189515050891341 33.195825124285435,14.17233639374945 33.195825124285435,15.384500453863575 z" id="svg_28"/>
		</g>
	</g>
	<g style="opacity:0.6;" id="svg_29">
		<path style="fill:#BDC3C7;" d="M40.379413715830914,13.189515050891341 h-1.9954412754293025 c0.8817189849030278,0 1.5963530203434417,0.7146340354404145 1.5963530203434417,1.5963530203434417 v11.573559397489952 h1.9954412754293025 v-11.573559397489952 C41.97576673617436,13.904149086331756 41.26113270073394,13.189515050891341 40.379413715830914,13.189515050891341 z" id="svg_30"/>
	</g>
	<g id="svg_31">
		<g id="svg_32">
			<path style="fill:#F5DB91;" d="M35.98944290988645,9.908211417575398 c0,-1.8123927957632544 3.45876487741079,-6.562873325468613 3.45876487741079,-6.562873325468613 s3.45876487741079,4.750480529705358 3.45876487741079,6.562873325468613 s-1.5484624297331389,3.281303633315944 -3.45876487741079,3.281303633315944 S35.98944290988645,11.720338154501924 35.98944290988645,9.908211417575398 z" id="svg_33"/>
		</g>
	</g>
	<g style="opacity:0.6;" id="svg_34">
		<path style="fill:#BDC3C7;" d="M39.44820778729724,3.3453380921067843 c0,0 -0.4001524904327559,0.5499436155083157 -0.9280132224929873,1.3459916549862454 c0.5911827352005211,1.5455357825291758 1.460130895940801,4.020681140571681 1.460130895940801,5.216881670482366 c0,1.5066911923674855 -0.6183207365463602,2.7731312551732823 -1.460130895940801,3.1583844507495 c0.2955913676002609,0.07795523916010488 0.6060820300570603,0.12291918256644511 0.9280132224929873,0.12291918256644511 c1.910302447677652,0 3.45876487741079,-1.469176896389414 3.45876487741079,-3.281303633315944 C42.90697266470803,8.09581862181214 39.44820778729724,3.3453380921067843 39.44820778729724,3.3453380921067843 z" id="svg_35"/>
	</g>
	<g id="svg_36">
		<path style="fill:#C63C22;" d="M4.860559013189337,74.64910633411382 h70.23953289511144 v-12.859421755376593 c0,-2.59593606991516 -2.1045253984861043,-4.700461468401266 -4.700461468401266,-4.700461468401266 H9.561020481590598 c-2.59593606991516,0 -4.700461468401266,2.1045253984861043 -4.700461468401266,4.700461468401266 V74.64910633411382 z" id="svg_37"/>
	</g>
	<g id="svg_38">
		<g id="svg_39">
			<path style="fill:#F492A6;" d="M4.860559013189337,74.64910633411382 h70.23953289511144 v-12.859421755376593 c0,-2.59593606991516 -2.1045253984861043,-4.700461468401266 -4.700461468401266,-4.700461468401266 H9.561020481590598 c-2.59593606991516,0 -4.700461468401266,2.1045253984861043 -4.700461468401266,4.700461468401266 V74.64910633411382 z" id="svg_40"/>
		</g>
	</g>
	<g id="svg_41">
		<g id="svg_42">
			<path style="fill:#EDB7AB;" d="M13.330009962621466,74.64910633411382 H66.32015029641184 v-12.859421755376593 c0,-2.59593606991516 -2.1045253984861043,-4.700461468401266 -4.700461468401266,-4.700461468401266 H18.030471431022733 c-2.59593606991516,0 -4.700461468401266,2.1045253984861043 -4.700461468401266,4.700461468401266 V74.64910633411382 z" id="svg_43"/>
		</g>
	</g>
	<g id="svg_44">
		<g id="svg_45">
			<path style="fill:#5B5869;" d="M2.665573610217105,79.0390771400583 h74.6295037010559 c1.2121640601141201,0 2.194985402972233,-0.9828213428581123 2.194985402972233,-2.194985402972233 l0,0 c0,-1.2121640601141201 -0.9828213428581123,-2.194985402972233 -2.194985402972233,-2.194985402972233 H2.665573610217105 c-1.2121640601141201,0 -2.194985402972233,0.9828213428581123 -2.194985402972233,2.194985402972233 l0,0 C0.47058820724487305,78.05625579720018 1.4534095501029887,79.0390771400583 2.665573610217105,79.0390771400583 z" id="svg_46"/>
		</g>
	</g>
	<g id="svg_47">
		<g id="svg_48">
			<circle style="fill:#ECF0F1;" cx="11.445515222106033" cy="68.06415012519713" r="2.1949853897094727" id="svg_49"/>
		</g>
		<g id="svg_50">
			<circle style="fill:#ECF0F1;" cx="22.859439723535207" cy="68.06415012519713" r="2.1949853897094727" id="svg_51"/>
		</g>
		<g id="svg_52">
			<circle style="fill:#ECF0F1;" cx="34.27336422496438" cy="68.06415012519713" r="2.1949853897094727" id="svg_53"/>
		</g>
		<g id="svg_54">
			<circle style="fill:#ECF0F1;" cx="45.687286696525724" cy="68.06415012519713" r="2.1949853897094727" id="svg_55"/>
		</g>
		<g id="svg_56">
			<circle style="fill:#ECF0F1;" cx="57.10121322782273" cy="68.06415012519713" r="2.1949853897094727" id="svg_57"/>
		</g>
		<g id="svg_58">
			<circle style="fill:#ECF0F1;" cx="68.51513569938406" cy="68.06415012519713" r="2.1949853897094727" id="svg_59"/>
		</g>
	</g>
</g><g id="svg_60" class="">
</g><g id="svg_61" class="">
</g><g id="svg_62" class="">
</g><g id="svg_63" class="">
</g><g id="svg_64" class="">
</g><g id="svg_65" class="">
</g><g id="svg_66" class="">
</g><g id="svg_67" class="">
</g><g id="svg_68" class="">
</g><g id="svg_69" class="">
</g><g id="svg_70" class="">
</g><g id="svg_71" class="">
</g><g id="svg_72" class="">
</g><g id="svg_73" class="">
</g><g id="svg_74" class="">
</g></g></svg>