<svg xmlns="http://www.w3.org/2000/svg" xmlns:xlink="http://www.w3.org/1999/xlink" version="1.1" style="enable-background:new 0 0 496 496;" xml:space="preserve" width="80" height="80"><rect id="backgroundrect" width="100%" height="100%" x="0" y="0" fill="none" stroke="none" class="" style=""/>



































<g class="currentLayer" style=""><title>Layer 1</title><g class=""><g id="svg_1" class="">
	<path style="fill:#0FA862;" d="M35.35905341198242,61.66453450302815 c-1.3017598915190942,0 -2.4733437938862792,-0.9112319240633805 -2.7336957721900994,-2.2129918155824613 l-6.248447479291652,-29.28959755917962 c-0.26035197830381906,-1.5621118698229135 0.650879945759562,-2.994047750493917 2.082815826430551,-3.2543997287977353 c1.5621118698229135,-0.26035197830381906 2.994047750493917,0.650879945759562 3.2543997287977353,2.082815826430551 l6.248447479291652,29.28959755917962 c0.26035197830381906,1.5621118698229135 -0.650879945759562,2.994047750493917 -2.082815826430551,3.2543997287977353 C35.74958137943814,61.534358513876235 35.61940539028624,61.66453450302815 35.35905341198242,61.66453450302815 z" id="svg_2"/>
	<path style="fill:#0FA862;" d="M56.96826761119939,61.66453450302815 c-0.1301759891519095,0 -0.39052796745573587,0 -0.650879945759562,0 c-1.5621118698229135,-0.26035197830381906 -2.4733437938862792,-1.822463848126732 -2.082815826430551,-3.2543997287977353 L60.61319530745285,28.990361225898887 c0.26035197830381906,-1.5621118698229135 1.822463848126732,-2.4733437938862792 3.2543997287977353,-2.082815826430551 c1.5621118698229135,0.26035197830381906 2.4733437938862792,1.822463848126732 2.082815826430551,3.2543997287977353 l-6.248447479291652,29.28959755917962 C59.44161140508566,60.753302578964785 58.270027502718484,61.66453450302815 56.96826761119939,61.66453450302815 z" id="svg_3"/>
	<path style="fill:#0FA862;" d="M46.29383650074282,61.01365455726861 c-1.5621118698229135,0 -2.6035197830381898,-1.3017598915190942 -2.6035197830381898,-2.7336957721900994 v-29.28959755917962 c0,-1.5621118698229135 1.0414079132152756,-1.4319358806710039 2.6035197830381898,-1.4319358806710039 s2.6035197830381898,0 2.6035197830381898,1.4319358806710039 v29.28959755917962 C48.897356283781,59.84207065490141 47.85594837056572,61.01365455726861 46.29383650074282,61.01365455726861 z" id="svg_4"/>
</g><path style="fill:#1AD85A;" d="M79.87924170193543,29.901593149962252 c0.26035197830381906,-0.7810559349114565 0.1301759891519095,-1.6922878589748227 -0.39052796745573587,-2.4733437938862792 c-0.5207039566076215,-0.650879945759562 -1.3017598915190942,-1.1715839023671848 -2.2129918155824613,-1.1715839023671848 H15.181775093436455 c-0.9112319240633805,0 -1.6922878589748227,0.39052796745573587 -2.2129918155824613,1.1715839023671848 c-0.5207039566076215,0.7810559349114565 -0.650879945759562,1.5621118698229135 -0.39052796745573587,2.4733437938862792 L18.95687877884183,50.33922344681202 l0.39052796745573587,1.1715839023671848 l2.7336957721900994,9.11231924063366 c0.39052796745573587,1.1715839023671848 1.4319358806710039,2.2129918155824613 2.6035197830381898,2.2129918155824613 h42.95807642013011 c1.1715839023671848,0 2.3431678047343696,-1.0414079132152756 2.6035197830381898,-2.2129918155824613 l2.7336957721900994,-8.982143251481752 l0.39052796745573587,-1.1715839023671848 L79.87924170193543,29.901593149962252 zM22.341454496791474,41.87778415193792 h47.77458801875076 l-1.5621118698229135,5.207039566076377 H23.903566366614392 L22.341454496791474,41.87778415193792 zM73.37044224433996,31.463705019785152 l-1.5621118698229135,5.207039566076377 H20.518990648664744 l-1.5621118698229135,-5.207039566076377 H73.37044224433996 zM26.767438127956396,56.19714295864795 l-1.1715839023671848,-3.9052796745572826 h41.26578856115529 l-1.1715839023671848,3.9052796745572826 H26.767438127956396 z" id="svg_5" class=""/><path style="fill:#19BF55;" d="M77.14554592974537,27.558425345227874 H15.181775093436455 c-0.9112319240633805,0 -1.6922878589748227,0.39052796745573587 -2.2129918155824613,1.0414079132152756 c-0.26035197830381906,0.26035197830381906 -0.39052796745573587,0.650879945759562 -0.39052796745573587,1.0414079132152756 v0.1301759891519095 L18.95687877884183,50.33922344681202 l0.39052796745573587,1.1715839023671848 l2.7336957721900994,9.11231924063366 c0.39052796745573587,1.1715839023671848 1.4319358806710039,2.2129918155824613 2.6035197830381898,2.2129918155824613 h42.95807642013011 c1.1715839023671848,0 2.3431678047343696,-1.0414079132152756 2.6035197830381898,-2.2129918155824613 l2.7336957721900994,-8.982143251481752 l0.39052796745573587,-1.1715839023671848 l6.378623468443561,-20.437630296849775 c0,0 0,-0.1301759891519095 0,-0.26035197830381906 c-0.1301759891519095,-0.39052796745573587 -0.26035197830381906,-0.650879945759562 -0.39052796745573587,-1.0414079132152756 C78.96800977787207,27.948953312683606 78.05677785380871,27.558425345227874 77.14554592974537,27.558425345227874 zM66.86164278674448,53.59362317560975 l-1.1715839023671848,3.9052796745572826 H26.767438127956396 l-1.1715839023671848,-3.9052796745572826 h0.39052796745573587 l-0.39052796745573587,-1.3017598915190942 h41.26578856115529 l-0.39052796745573587,1.3017598915190942 H66.86164278674448 zM70.11604251554223,43.179544043457 l-1.5621118698229135,5.207039566076377 H23.903566366614392 l-1.5621118698229135,-5.207039566076377 h0.39052796745573587 l-0.39052796745573587,-1.3017598915190942 h47.77458801875076 l-0.39052796745573587,1.3017598915190942 H70.11604251554223 zM73.37044224433996,32.76546491130425 l-1.5621118698229135,5.207039566076377 H20.518990648664744 l-1.5621118698229135,-5.207039566076377 h0.39052796745573587 l-0.39052796745573587,-1.3017598915190942 h54.41356346549813 l-0.39052796745573587,1.3017598915190942 H73.37044224433996 z" id="svg_6" class=""/><path style="fill:#72B1B7;" d="M69.20481059147886,71.81826165687708 H23.252686420854843 c-1.5621118698229135,0 -2.7336957721900994,-1.0414079132152756 -2.7336957721900994,-2.6035197830381898 s1.3017598915190942,-2.6035197830381898 2.7336957721900994,-2.6035197830381898 h45.95212417062403 c1.5621118698229135,0 2.7336957721900994,1.0414079132152756 2.7336957721900994,2.6035197830381898 C71.93850636366898,70.7768537436618 70.76692246130177,71.81826165687708 69.20481059147886,71.81826165687708 z" id="svg_7" class=""/><path style="fill:#5D9BA5;" d="M25.595854225589207,71.81826165687708 h18.22463848126732 c0,-1.3017598915190942 -2.6035197830381898,-3.9052796745572826 -5.467391544380197,-5.207039566076377 h-9.763199186393207 C26.637262138804484,67.9129819823198 25.595854225589207,70.51650176535799 25.595854225589207,71.81826165687708 z" id="svg_8" class=""/><path style="fill:#C43700;" d="M39.52468506484352,72.33896561348473 c0,3.9052796745572826 -3.124223739645827,7.420031381658837 -7.029503414203109,7.420031381658837 S25.465678236437302,76.11406929889009 25.465678236437302,72.33896561348473 c0,-3.9052796745572826 3.124223739645827,-7.029503414203109 7.029503414203109,-7.029503414203109 S39.52468506484352,68.43368593892744 39.52468506484352,72.33896561348473 z" id="svg_9" class=""/><path style="fill:#FF9D00;" d="M39.52468506484352,72.33896561348473 c0,3.9052796745572826 -3.124223739645827,7.029503414203109 -7.029503414203109,7.029503414203109 S25.465678236437302,76.24424528804201 25.465678236437302,72.33896561348473 s3.124223739645827,-7.550207370810747 7.029503414203109,-7.550207370810747 C36.40046132519768,64.78875824267396 39.52468506484352,68.43368593892744 39.52468506484352,72.33896561348473 z" id="svg_10" class=""/><circle style="fill:#FF5B00;" cx="32.495181154058415" cy="72.33896362715676" r="7.029503345489502" id="svg_11" class=""/><path style="fill:#DD4400;" d="M27.548494062867857,67.39227802571216 c2.7336957721900994,-2.7336957721900994 7.159679403355018,-2.7336957721900994 9.893375175545117,0 s2.7336957721900994,7.159679403355018 0,9.893375175545117 " id="svg_12" class=""/><path style="fill:#EBF0F2;" d="M32.4951816506404,76.5045972663458 c-2.3431678047343696,0 -4.165631652861102,-1.822463848126732 -4.165631652861102,-4.165631652861102 s1.822463848126732,-4.165631652861102 4.165631652861102,-4.165631652861102 s4.165631652861102,1.822463848126732 4.165631652861102,4.165631652861102 C36.66081330350151,74.55195742906717 34.83834945537478,76.5045972663458 32.4951816506404,76.5045972663458 z" id="svg_13" class=""/><path style="fill:#CADFE5;" d="M35.489229401134324,69.3449178629908 c1.5621118698229135,1.5621118698229135 1.5621118698229135,4.295807642013012 0,5.857919511835924 s-4.295807642013012,1.5621118698229135 -5.857919511835924,0 " id="svg_14" class=""/><path style="fill:#5D9BA5;" d="M51.24052408851537,71.81826165687708 h18.22463848126732 c0,-1.3017598915190942 -2.6035197830381898,-3.9052796745572826 -5.467391544380197,-5.207039566076377 H54.104395849857376 C52.41210799088256,67.9129819823198 51.24052408851537,70.51650176535799 51.24052408851537,71.81826165687708 z" id="svg_15" class=""/><path style="fill:#C43700;" d="M65.16935492776969,72.33896561348473 c0,3.9052796745572826 -3.124223739645827,7.420031381658837 -7.029503414203109,7.420031381658837 s-7.029503414203109,-3.6449276962534647 -7.029503414203109,-7.420031381658837 c0,-3.9052796745572826 3.124223739645827,-7.029503414203109 7.029503414203109,-7.029503414203109 S65.16935492776969,68.43368593892744 65.16935492776969,72.33896561348473 z" id="svg_16" class=""/><path style="fill:#FF9D00;" d="M65.16935492776969,72.33896561348473 c0,3.9052796745572826 -3.124223739645827,7.029503414203109 -7.029503414203109,7.029503414203109 s-7.029503414203109,-3.124223739645827 -7.029503414203109,-7.029503414203109 s3.124223739645827,-7.550207370810747 7.029503414203109,-7.550207370810747 C62.04513118812385,64.78875824267396 65.16935492776969,68.43368593892744 65.16935492776969,72.33896561348473 z" id="svg_17" class=""/><circle style="fill:#FF5B00;" cx="58.27002849588246" cy="72.33896362715676" r="7.029503345489502" id="svg_18" class=""/><path style="fill:#DD4400;" d="M53.32333991494592,67.39227802571216 c2.7336957721900994,-2.7336957721900994 7.159679403355018,-2.7336957721900994 9.893375175545117,0 s2.7336957721900994,7.159679403355018 0,9.893375175545117 " id="svg_19" class=""/><path style="fill:#EBF0F2;" d="M58.270027502718484,76.5045972663458 c-2.3431678047343696,0 -4.165631652861102,-1.822463848126732 -4.165631652861102,-4.165631652861102 s1.822463848126732,-4.165631652861102 4.165631652861102,-4.165631652861102 s4.165631652861102,1.822463848126732 4.165631652861102,4.165631652861102 C62.30548316642766,74.55195742906717 60.48301931830093,76.5045972663458 58.270027502718484,76.5045972663458 z" id="svg_20" class=""/><path style="fill:#CADFE5;" d="M61.13389926406048,69.3449178629908 c1.5621118698229135,1.5621118698229135 1.5621118698229135,4.295807642013012 0,5.857919511835924 s-4.295807642013012,1.5621118698229135 -5.857919511835924,0 " id="svg_21" class=""/><path style="fill:#1B5A89;" d="M16.922878948343243,19.585146009673426 c0,1.4319358806710039 -1.1715839023671848,2.6035197830381898 -2.6035197830381898,2.6035197830381898 h-11.715839023671847 c-1.4319358806710039,0 -2.6035197830381898,-1.1715839023671848 -2.6035197830381898,-2.6035197830381898 l0,0 c0,-1.4319358806710039 1.1715839023671848,-2.6035197830381898 2.6035197830381898,-2.6035197830381898 h11.715839023671847 C15.751295045976057,16.981626226635242 16.922878948343243,18.153210129002424 16.922878948343243,19.585146009673426 L16.922878948343243,19.585146009673426 z" id="svg_22" class=""/><path style="fill:#18456D;" d="M2.4733441524812965,16.981626226635242 c-1.1715839023671848,0 -2.2129918155824613,1.0414079132152756 -2.4733437938862792,2.082815826430551 c0.39052796745573587,1.1715839023671848 1.1715839023671848,1.822463848126732 2.4733437938862792,1.822463848126732 h11.715839023671847 c1.1715839023671848,0 2.3431678047343696,-0.7810559349114565 2.7336957721900994,-1.9526398372786424 c-0.39052796745573587,-1.3017598915190942 -1.4319358806710039,-1.9526398372786424 -2.7336957721900994,-1.9526398372786424 H2.4733441524812965 z" id="svg_23" class=""/><g id="svg_24" class="">
</g><g id="svg_25" class="">
</g><g id="svg_26" class="">
</g><g id="svg_27" class="">
</g><g id="svg_28" class="">
</g><g id="svg_29" class="">
</g><g id="svg_30" class="">
</g><g id="svg_31" class="">
</g><g id="svg_32" class="">
</g><g id="svg_33" class="">
</g><g id="svg_34" class="">
</g><g id="svg_35" class="">
</g><g id="svg_36" class="">
</g><g id="svg_37" class="">
</g><g id="svg_38" class="">
</g></g></g></svg>