<svg xmlns="http://www.w3.org/2000/svg" xmlns:xlink="http://www.w3.org/1999/xlink" version="1.1" style="" xml:space="preserve" width="80" height="80"><rect id="backgroundrect" width="100%" height="100%" x="0" y="0" fill="none" stroke="none" class="" style=""/>





























<g class="currentLayer" style=""><title>Layer 1</title>
	
	
<g class="" id="svg_33"><polygon style="fill:#BDAC92;" points="51.089256286621094,37.76015359163284 28.675901412963867,37.76015359163284 28.675901412963867,22.158348858356476 39.88254165649414,14.441870510578156 51.089256286621094,22.158348858356476 " id="svg_1" class=""/><polygon style="fill:#BDAC92;" points="51.089256286621094,37.76015359163284 28.675901412963867,37.76015359163284 28.675901412963867,22.158348858356476 39.88254165649414,14.441870510578156 51.089256286621094,22.158348858356476 " class="" id="svg_36"/><rect y="75.00435474783052" style="fill:#A8DA64;" width="18.894074917591297" height="4.856946891731013" id="svg_2" class="" x="0.03124321810901165"/><rect x="62.273568268710044" y="75.08091405054591" style="fill:#7FA24D;" width="17.590479313225842" height="4.856946891731013" id="svg_3" class=""/><polygon style="fill:#DFDEE1;" points="62.22471618652344,79.8610447049141 17.540437698364258,79.8610447049141 17.540437698364258,48.45213204622269 39.8825569152832,35.504614651203156 62.22471618652344,48.45213204622269 " id="svg_4" class=""/><polygon style="fill:#AEACB3;" points="39.96529006958008,35.35159569978714 39.96529006958008,80.00757485628128 62.307212829589844,80.00757485628128 62.307212829589844,48.38655358552933 " id="svg_5" class=""/><path style="fill:#533F29;" d="M39.88257648852941,58.2344958730299 c-1.0253248168507991,0 -1.8563193804298341,-0.831140020355436 -1.8563193804298341,-1.8563193804298341 V40.04148956467216 c0,-1.0253248168507991 0.831140020355436,-1.8563193804298341 1.8563193804298341,-1.8563193804298341 c1.0253248168507991,0 1.8563193804298341,0.831140020355436 1.8563193804298341,1.8563193804298341 v16.33668692792791 C41.73889586895924,57.40350130945086 40.907901305380214,58.2344958730299 39.88257648852941,58.2344958730299 z" id="svg_6" class=""/><path style="fill:#533F29;" d="M39.882576696606996,18.808054296827205 c-1.0253248168507991,0 -1.8563193804298341,-0.7454523065197041 -1.8563193804298341,-1.6649391557235669 V2.490685161728867 c0,-0.9196173098805366 0.831140020355436,-1.6649391557235669 1.8563193804298341,-1.6649391557235669 c1.0253248168507991,0 1.8563193804298341,0.7454523065197041 1.8563193804298341,1.6649391557235669 v14.652429979374775 C41.73889607703683,18.06273245098416 40.90790151345779,18.808054296827205 39.882576696606996,18.808054296827205 z" class="" id="svg_32"/><g id="svg_7" class="">
	<path style="fill:#7E6142;" d="M43.96693055640455,46.72464661319348 h-8.168270735575751 c-1.0253248168507991,0 -1.8563193804298341,-0.831140020355436 -1.8563193804298341,-1.8563193804298341 c0,-1.0253248168507991 0.831140020355436,-1.8563193804298341 1.8563193804298341,-1.8563193804298341 h8.168270735575751 c1.0253248168507991,0 1.8563193804298341,0.831140020355436 1.8563193804298341,1.8563193804298341 S44.99225537325536,46.72464661319348 43.96693055640455,46.72464661319348 z" id="svg_8"/>
	<path style="fill:#7E6142;" d="M44.618140544351924,62.942786268354546 h-9.471127081799702 c-1.0058336088130622,0 -1.8214097540935894,0.8154306885041256 -1.8214097540935894,1.8214097540935894 v15.097104279438403 h13.113946589986876 V64.76419602244815 C46.43955029844551,63.75836241363508 45.62411960994139,62.942786268354546 44.618140544351924,62.942786268354546 z" id="svg_9"/>
</g><path style="fill:#533F29;" d="M44.754381841830444,62.942786268354546 h-9.471127081799702 c-1.0058336088130622,0 -1.8214097540935894,0.8154306885041256 -1.8214097540935894,1.8214097540935894 v1.5185687456266628 c0,-1.0058336088130622 0.8154306885041256,-1.8214097540935894 1.8214097540935894,-1.8214097540935894 h9.471127081799702 c1.0058336088130622,0 1.8214097540935894,0.8154306885041256 1.8214097540935894,1.8214097540935894 v-1.5185687456266628 C46.575791595924024,63.75836241363508 45.7603609074199,62.942786268354546 44.754381841830444,62.942786268354546 z" id="svg_10" class=""/><polygon style="fill:#A38A67;" points="39.867801666259766,12.06863385438919 39.867801666259766,12.06863385438919 39.867801666259766,35.38688546419144 51.074432373046875,35.38688546419144 51.074432373046875,19.78493767976761 " id="svg_11" class=""/><path style="fill:#533F29;" d="M44.754381841830444,62.942786268354546 h-4.735636269288052 v16.91851403353199 h6.556900566605237 V64.76419602244815 C46.575791595924024,63.75836241363508 45.7603609074199,62.942786268354546 44.754381841830444,62.942786268354546 z" id="svg_12" class=""/><path style="fill:#AEACB3;" d="M17.54041341383827,51.66866891122065 l22.342160855196873,-15.874570749301864 l22.342160855196873,15.874716206078265 v-5.958200474938634 L41.288995840056614,30.83518574085516 c-0.8421947353619136,-0.598409178113802 -1.970793863457438,-0.598409178113802 -2.812988598819351,0 l-20.935593827399,14.875282695426847 V51.66866891122065 z" id="svg_13" class=""/><path style="fill:#FF4B00;" d="M68.18003201237832,52.758285675260105 c-0.4865529170614163,0 -0.9777604509676653,-0.14574768995382342 -1.4046760897046628,-0.4488796119735522 L39.88257981777081,33.20118571781357 L12.989512799315184,52.309260606510136 c-1.0932531314300762,0.7770300995342551 -2.6094945686343225,0.5201534324100526 -3.3862337546157764,-0.5730996990200249 c-0.7767391859814538,-1.0932531314300762 -0.5202988891864535,-2.6093491118579215 0.5730996990200249,-3.3862337546157764 l28.299779503029903,-20.107799312900788 c0.8421947353619136,-0.598409178113802 1.970793863457438,-0.598409178113802 2.812988598819351,0 l28.299634046253498,20.107944769677182 c1.0932531314300762,0.7767391859814538 1.349984341777879,2.2929806231857 0.5729542422436237,3.3862337546157764 C69.68827332688049,52.402789313735994 68.93989821229727,52.758285675260105 68.18003201237832,52.758285675260105 z" id="svg_14" class=""/><path style="fill:#917857;" d="M28.675856931218455,23.149203843407268 v5.958055018162233 l11.206717337816688,-7.962594853744709 l11.206717337816688,7.962740310521111 V23.149203843407268 l-9.800150310018811,-6.9633067998696925 c-0.8421947353619136,-0.598409178113802 -1.970793863457438,-0.598409178113802 -2.812988598819351,0 L28.675856931218455,23.149203843407268 z" id="svg_15" class=""/><path style="fill:#FF9900;" d="M25.689709213499164,26.95638950892759 c-0.7597207431425355,0 -1.5080958577257895,-0.3554963615240964 -1.9817031216875145,-1.0221247677699765 c-0.7767391859814538,-1.0932531314300762 -0.5202988891864535,-2.6093491118579215 0.5730996990200249,-3.3862337546157764 l14.194981352199271,-10.085972875646819 c0.8421947353619136,-0.598409178113802 1.970793863457438,-0.598409178113802 2.812988598819351,0 l14.194981352199271,10.085972875646819 c1.0932531314300762,0.7767391859814538 1.349984341777879,2.2929806231857 0.5729542422436237,3.3862337546157764 c-0.7765937292050537,1.0933985882064774 -2.2926897096328975,1.3501297985542806 -3.3862337546157764,0.5730996990200249 L39.882654170828815,17.42097053195864 l-12.788268867624993,9.086393908219 C26.667615121243227,26.810787275750172 26.176262130560577,26.95638950892759 25.689709213499164,26.95638950892759 z" id="svg_16" class=""/><path style="fill:#FF9900;" d="M25.689709213499164,26.95638950892759 c-0.7597207431425355,0 -1.5080958577257895,-0.3554963615240964 -1.9817031216875145,-1.0221247677699765 c-0.7767391859814538,-1.0932531314300762 -0.5202988891864535,-2.6093491118579215 0.5730996990200249,-3.3862337546157764 l14.194981352199271,-10.085972875646819 c0.8421947353619136,-0.598409178113802 1.970793863457438,-0.598409178113802 2.812988598819351,0 l14.194981352199271,10.085972875646819 c1.0932531314300762,0.7767391859814538 1.349984341777879,2.2929806231857 0.5729542422436237,3.3862337546157764 c-0.7765937292050537,1.0933985882064774 -2.2926897096328975,1.3501297985542806 -3.3862337546157764,0.5730996990200249 L39.882654170828815,17.42097053195864 l-12.788268867624993,9.086393908219 C26.667615121243227,26.810787275750172 26.176262130560577,26.95638950892759 25.689709213499164,26.95638950892759 z" class="" id="svg_37"/><g id="svg_17" class="">
</g><g id="svg_18" class="">
</g><g id="svg_19" class="">
</g><g id="svg_20" class="">
</g><g id="svg_21" class="">
</g><g id="svg_22" class="">
</g><g id="svg_23" class="">
</g><g id="svg_24" class="">
</g><g id="svg_25" class="">
</g><g id="svg_26" class="">
</g><g id="svg_27" class="">
</g><g id="svg_28" class="">
</g><g id="svg_29" class="">
</g><g id="svg_30" class="">
</g><g id="svg_31" class="">
</g><path style="fill:#7E6142;" d="M43.966708884414444,7.257993381329524 h-8.168270735575751 c-1.0253248168507991,0 -1.8563193804298341,-0.831140020355436 -1.8563193804298341,-1.8563193804298341 c0,-1.0253248168507991 0.831140020355436,-1.8563193804298341 1.8563193804298341,-1.8563193804298341 h8.168270735575751 c1.0253248168507991,0 1.8563193804298341,0.831140020355436 1.8563193804298341,1.8563193804298341 S44.99203370126526,7.257993381329524 43.966708884414444,7.257993381329524 z" class="" id="svg_38"/></g></g></svg>