<svg xmlns="http://www.w3.org/2000/svg" xmlns:xlink="http://www.w3.org/1999/xlink" version="1.1" style="" xml:space="preserve" width="80" height="80"><rect id="backgroundrect" width="100%" height="100%" x="0" y="0" fill="none" stroke="none" class="" style=""/>




















































<g class="currentLayer" style=""><title>Layer 1</title><g class="" id="svg_27"><path style="fill:#07A5A5;" d="M67.53959155162897,66.57315766004093 H12.80180138349533 v8.828675833569942 l0,0 c0.8828675833569941,1.7657351667139882 12.978153475347812,3.6197570917636757 27.368895084066818,3.6197570917636757 s26.13288046736703,-1.8540219250496888 27.015748050724024,-3.6197570917636757 h0.35314703334279784 V66.57315766004093 z" id="svg_1" class=""/><path style="fill:#028184;" d="M39.81754943421936,79.02159058537457 c14.390741608719006,0 26.839174534052617,-1.8540219250496888 27.722042117409615,-3.6197570917636757 l0,0 v-8.828675833569942 H12.80180138349533 " id="svg_2" class=""/><path style="fill:#F9A035;" d="M67.53959155162897,57.74448182647099 H12.80180138349533 v8.828675833569942 l0,0 c0.8828675833569941,1.7657351667139882 12.978153475347812,3.6197570917636757 27.368895084066818,3.6197570917636757 s26.13288046736703,-1.8540219250496888 27.015748050724024,-3.6197570917636757 h0.35314703334279784 V57.74448182647099 z" id="svg_3" class=""/><path style="fill:#ED5E0F;" d="M39.72926267588365,70.19291475180462 c14.390741608719006,0 26.927461292388323,-1.8540219250496888 27.810328875745316,-3.6197570917636757 l0,0 v-8.828675833569942 H12.80180138349533 " id="svg_4" class=""/><path style="fill:#D33CAC;" d="M67.53959155162897,48.915805992901056 l-54.737790168133635,-0.1765735166713992 v9.005249350241339 l0,0 c0.8828675833569941,1.7657351667139882 12.978153475347812,3.6197570917636757 27.368895084066818,3.6197570917636757 s26.13288046736703,-1.8540219250496888 27.015748050724024,-3.6197570917636757 h0.35314703334279784 V48.915805992901056 z" id="svg_5" class=""/><path style="fill:#AD1591;" d="M39.99412295089074,61.364238918234676 c14.302454850383304,0 26.662601017381224,-1.8540219250496888 27.545468600738218,-3.6197570917636757 l0,0 v-9.005249350241339 l-54.737790168133635,0.1765735166713992 " id="svg_6" class=""/><path style="fill:#F77FC7;" d="M67.27473127662188,48.739232476229645 c0,2.118882200056786 -12.095285891990818,3.8846173667707746 -27.10403480905972,3.8846173667707746 s-27.368895084066818,-1.7657351667139882 -27.368895084066818,-3.8846173667707746 s12.448432925333618,-3.8846173667707746 27.368895084066818,-3.8846173667707746 S67.27473127662188,46.532063517837166 67.27473127662188,48.739232476229645 z" id="svg_7" class=""/><path style="fill:#E260BA;" d="M40.17069646756215,44.8546151094589 c14.9204621587332,0 27.368895084066818,1.7657351667139882 27.368895084066818,3.8846173667707746 s-12.448432925333618,3.7963306084350745 -27.368895084066818,3.7963306084350745 " id="svg_8" class=""/><ellipse style="fill:#BA4A9D;" cx="40.1706947684288" cy="47.41493283212185" rx="18.010498046875" ry="2.5603160858154297" id="svg_9" class=""/><path style="fill:#A03589;" d="M40.17069646756215,44.8546151094589 c9.976403691934037,0 18.010498700482678,1.1477278583640924 18.010498700482678,2.560315991735283 s-8.122381766884345,2.560315991735283 -18.010498700482678,2.560315991735283 " id="svg_10" class=""/><path style="fill:#82C60A;" d="M29.841145742285313,29.669292675718587 L29.841145742285313,29.669292675718587 L29.841145742285313,29.669292675718587 L29.841145742285313,29.669292675718587 c0.08828675833569974,5.385492258477663 -4.326051158449271,8.475528800227144 -1.6774484083782895,13.861021058704807 c1.5008748917068901,3.0900365417494795 5.120631983470566,3.708043850099376 9.27010962524844,4.1494776417778745 l0,0 h0.08828675833569974 l0,0 c2.6486027500709826,-3.266610058420879 4.5909114334563705,-6.268359841834657 3.4431835750922772,-9.53496990025554 C38.93468185086236,32.40618218412526 33.725763109056096,33.46562328415365 29.841145742285313,29.669292675718587 z" id="svg_11" class=""/><path style="fill:#5EA304;" d="M37.43380695915546,47.59150461786556 L37.43380695915546,47.59150461786556 L37.43380695915546,47.59150461786556 L37.43380695915546,47.59150461786556 c2.7368895084066818,-3.266610058420879 4.679198191792069,-6.356646600170358 3.5314703334279764,-9.53496990025554 c-2.0305954417210863,-5.650352533484764 -7.327800941863051,-4.5909114334563705 -11.124131550298127,-8.387242041891444 l0,0 h-0.08828675833569974 l0,0 " id="svg_12" class=""/><g id="svg_13" class="">
	<polygon style="fill:#74B208;" points="33.19604168832302,37.61509323120117 29.57628308236599,36.99708938598633 33.725761994719505,38.67454528808594 35.31492291390896,34.613346099853516 " id="svg_14"/>
	<polygon style="fill:#74B208;" points="35.75635968148708,43.61861038208008 32.13660107553005,43.0005989074707 36.19779263436794,44.678035736083984 37.87524090707302,40.616844177246094 " id="svg_15"/>
	<polygon style="fill:#74B208;" points="34.520344361662865,40.528560638427734 30.37086544930935,39.910552978515625 34.96178112924099,41.76457214355469 36.81580029428005,37.08538818359375 " id="svg_16"/>
</g><path style="fill:#82C60A;" d="M18.2755804003087,41.2348580176952 L18.2755804003087,41.2348580176952 L18.2755804003087,41.2348580176952 L18.2755804003087,41.2348580176952 c3.266610058420879,3.0017497834137803 2.6486027500709826,7.327800941863051 7.239514183527351,8.740389075234242 c2.6486027500709826,0.7945808250212945 5.032345225134867,-0.9711543416926935 7.592661216870149,-3.266610058420879 l0,0 l0,0 l0,0 c-0.5297205500141972,-3.354896816756577 -1.1477278583640924,-6.268359841834657 -3.708043850099376,-7.327800941863051 C24.98537403382184,37.43852740926013 22.689918317093674,41.14657125935951 18.2755804003087,41.2348580176952 z" id="svg_17" class=""/><path style="fill:#5EA304;" d="M33.1960425590419,46.70863703450857 L33.1960425590419,46.70863703450857 L33.1960425590419,46.70863703450857 L33.1960425590419,46.70863703450857 c-0.5297205500141972,-3.354896816756577 -1.1477278583640924,-6.268359841834657 -3.708043850099376,-7.416087700198752 c-4.414337916784971,-1.9423086833853875 -6.798080391848855,1.7657351667139882 -11.124131550298127,1.9423086833853875 l0,0 l0,0 l0,0 " id="svg_18" class=""/><g id="svg_19" class="">
	<polygon style="fill:#74B208;" points="24.897085770964622,43.706886291503906 22.513340577483177,45.56090545654297 25.779953584074974,43.97174835205078 24.27907620370388,40.79342269897461 " id="svg_20"/>
	<polygon style="fill:#74B208;" points="29.841145142912865,45.472625732421875 27.457398042082787,47.32664108276367 30.72401486337185,45.82577133178711 29.22313366830349,42.55915832519531 " id="svg_21"/>
	<polygon style="fill:#74B208;" points="27.280830964446068,44.589759826660156 24.632227525115013,46.62035369873047 28.34026776254177,44.94289779663086 26.574532136321068,41.234867095947266 " id="svg_22"/>
</g><path style="fill:#AF0547;" d="M48.0282179594394,43.08887994274491 c0,5.120631983470566 -3.5314703334279764,4.326051158449271 -7.8575214918772485,4.326051158449271 s-7.8575214918772485,0.7945808250212945 -7.8575214918772485,-4.326051158449271 s3.5314703334279764,-11.477278583640924 7.8575214918772485,-11.477278583640924 C44.49674762601142,31.61160135910397 48.0282179594394,37.96824795927434 48.0282179594394,43.08887994274491 z" id="svg_23" class=""/><path style="fill:#84003C;" d="M40.17069646756215,31.61160135910397 c4.326051158449271,0 7.8575214918772485,6.356646600170358 7.8575214918772485,11.477278583640924 s-3.5314703334279764,4.326051158449271 -7.8575214918772485,4.326051158449271 " id="svg_24" class=""/><ellipse style="fill:#5EA304;" cx="40.1706947684288" cy="47.59150372445583" rx="3.53147029876709" ry="0.5297205448150635" id="svg_25" class=""/><path style="fill:#527C00;" d="M40.17069646756215,47.06178406785138 c1.9423086833853875,0 3.5314703334279764,0.2648602750070986 3.5314703334279764,0.5297205500141972 s-1.5891616500425902,0.5297205500141972 -3.5314703334279764,0.5297205500141972 " id="svg_26" class=""/><g id="svg_28" class="">
	<circle style="fill:#680034;" cx="36.02121585607529" cy="42.73573361337185" r="0.6180073022842407" id="svg_29"/>
	<circle style="fill:#680034;" cx="34.96177524328232" cy="45.29605160653591" r="0.6180073022842407" id="svg_30"/>
	<circle style="fill:#680034;" cx="37.96352618932724" cy="40.44027768075466" r="0.6180073022842407" id="svg_31"/>
	<circle style="fill:#680034;" cx="35.8446449637413" cy="38.2331091016531" r="0.5297205448150635" id="svg_32"/>
	<circle style="fill:#680034;" cx="34.52034229040146" cy="40.52856503427029" r="0.5297205448150635" id="svg_33"/>
	<circle style="fill:#680034;" cx="38.7581085562706" cy="37.17366848886013" r="0.44143378734588623" id="svg_34"/>
	<circle style="fill:#680034;" cx="37.08066028356552" cy="35.49621640145779" r="0.44143378734588623" id="svg_35"/>
	<circle style="fill:#680034;" cx="39.022970616817474" cy="33.64219342172146" r="0.353147029876709" id="svg_36"/>
	<circle style="fill:#680034;" cx="38.669821202754974" cy="45.03118573129177" r="0.6180073022842407" id="svg_37"/>
</g><g id="svg_38" class="">
	<circle style="fill:#C1145A;" cx="44.320177495479584" cy="42.73573361337185" r="0.6180073022842407" id="svg_39"/>
	<circle style="fill:#C1145A;" cx="45.37961810827255" cy="45.29605160653591" r="0.6180073022842407" id="svg_40"/>
	<circle style="fill:#C1145A;" cx="42.377863347530365" cy="40.44027768075466" r="0.6180073022842407" id="svg_41"/>
	<circle style="fill:#C1145A;" cx="44.49674838781357" cy="38.2331091016531" r="0.5297205448150635" id="svg_42"/>
	<circle style="fill:#C1145A;" cx="45.821047246456146" cy="40.52856503427029" r="0.5297205448150635" id="svg_43"/>
	<circle style="fill:#C1145A;" cx="41.58328479528427" cy="37.17366848886013" r="0.44143378734588623" id="svg_44"/>
	<circle style="fill:#C1145A;" cx="43.26073306798935" cy="35.49621640145779" r="0.44143378734588623" id="svg_45"/>
	<circle style="fill:#C1145A;" cx="41.318422734737396" cy="33.64219342172146" r="0.353147029876709" id="svg_46"/>
	<circle style="fill:#C1145A;" cx="41.671572148799896" cy="45.03118573129177" r="0.6180073022842407" id="svg_47"/>
</g><path style="fill:#C4B37E;" d="M63.125253634844,28.080131025675996 c-1.5008748917068901,-0.7062940666855977 -3.178323300085179,-0.44143379167849717 -3.7963306084350745,0.7945808250212945 l-9.093536108577041,18.187072217154082 l-0.08828675833569974,0.08828675833569974 H56.94518055134504 l7.8575214918772485,-15.715042983754499 C65.42070935157217,30.28729998406849 64.62612852655089,28.874711850697274 63.125253634844,28.080131025675996 z" id="svg_48" class=""/><path style="fill:#AA945E;" d="M53.413710217917064,47.15007082618706 c0,0 -3.178323300085179,0 -3.266610058420879,0 H56.94518055134504 l7.8575214918772485,-15.715042983754499 c0.6180073083498967,-1.1477278583640924 -0.1765735166713992,-2.560315991735283 -1.6774484083782895,-3.354896816756577 " id="svg_49" class=""/><polygon style="fill:#823061;" points="56.768608674407005,33.995338439941406 63.56668148934841,33.995338439941406 64.89099560678005,31.346731185913086 58.09290753304958,31.346731185913086 " id="svg_50" class=""/><polyline style="fill:#680034;" points="63.56668148934841,33.995338439941406 64.89099560678005,31.346731185913086 58.18119488656521,31.346731185913086 " id="svg_51" class=""/><polygon style="fill:#823061;" points="54.64972744882107,38.3213996887207 61.35952053964138,38.4096794128418 62.68381558358669,35.672794342041016 55.974026307463646,35.672794342041016 " id="svg_52" class=""/><polyline style="fill:#680034;" points="61.447807893157005,38.233116149902344 62.68381558358669,35.672794342041016 56.062309846282005,35.672794342041016 " id="svg_53" class=""/><polygon style="fill:#823061;" points="52.442558869719505,42.73573684692383 59.24063168466091,42.73573684692383 60.476650819182396,40.08713150024414 53.76686154305935,40.08713150024414 " id="svg_54" class=""/><polyline style="fill:#680034;" points="59.24063168466091,42.73573684692383 60.476650819182396,40.08713150024414 54.29658184945583,40.08713150024414 " id="svg_55" class=""/><polygon style="fill:#823061;" points="57.03346310555935,47.150081634521484 58.35776577889919,44.5014762878418 51.55968914926052,44.5014762878418 50.14709530770779,47.150081634521484 " id="svg_56" class=""/><polyline style="fill:#680034;" points="57.03346310555935,47.150081634521484 58.35776577889919,44.5014762878418 51.647976502776146,44.5014762878418 " id="svg_57" class=""/><ellipse transform="matrix(-0.010517160086740193,-0.10986183490398596,0.10986183490398596,-0.010517160086740193,-21.136142786562786,-82.05282580731031) " style="fill:#D8CAA4;" cx="-1070.08415229613" cy="647.667663953988" rx="4.800000190734863" ry="12.800999641418457" id="svg_58" class=""/><g id="svg_59" class="">
	
		<ellipse transform="matrix(-0.016344086136896356,-0.1091445049925084,0.1091445049925084,-0.016344086136896356,-87.63020873052295,-102.88288352953626) " style="fill:#F2C0E3;" cx="-1494.6920107501614" cy="742.5078243851084" rx="8.800000190734863" ry="30.400999069213867" id="svg_60"/>
	<path style="fill:#F2C0E3;" d="M15.450404133566312,56.155320176428404 c0,0.44143379167849717 -0.2648602750070986,0.7062940666855977 -0.7062940666855977,0.7062940666855977 h-0.35314703334279784 c-0.44143379167849717,0 -0.7062940666855977,-0.2648602750070986 -0.7062940666855977,-0.7062940666855977 v-4.855771708463468 c0,-0.35314703334279784 0.2648602750070986,-0.6180073083498967 0.7062940666855977,-0.6180073083498967 h0.44143379167849717 c0.35314703334279784,0 0.6180073083498967,0.2648602750070986 0.6180073083498967,0.7062940666855977 V56.155320176428404 z" id="svg_61"/>
</g><path style="fill:#F7C937;" d="M15.450404133566312,64.98399600999835 c0,0.44143379167849717 -0.2648602750070986,0.7062940666855977 -0.7062940666855977,0.7062940666855977 h-0.35314703334279784 c-0.44143379167849717,0 -0.7062940666855977,-0.2648602750070986 -0.7062940666855977,-0.7062940666855977 v-4.855771708463468 c0,-0.35314703334279784 0.2648602750070986,-0.6180073083498967 0.7062940666855977,-0.6180073083498967 h0.44143379167849717 c0.35314703334279784,0 0.6180073083498967,0.2648602750070986 0.6180073083498967,0.7062940666855977 V64.98399600999835 z" id="svg_62" class=""/><path style="fill:#3EC6BF;" d="M15.450404133566312,73.81267184356828 c0,0.44143379167849717 -0.2648602750070986,0.7062940666855977 -0.7062940666855977,0.7062940666855977 h-0.35314703334279784 c-0.44143379167849717,0 -0.7062940666855977,-0.2648602750070986 -0.7062940666855977,-0.7062940666855977 v-4.855771708463468 c0,-0.35314703334279784 0.2648602750070986,-0.6180073083498967 0.7062940666855977,-0.6180073083498967 h0.44143379167849717 c0.35314703334279784,0 0.6180073083498967,0.2648602750070986 0.6180073083498967,0.7062940666855977 V73.81267184356828 z" id="svg_63" class=""/><g id="svg_64" class="">
</g><g id="svg_65" class="">
</g><g id="svg_66" class="">
</g><g id="svg_67" class="">
</g><g id="svg_68" class="">
</g><g id="svg_69" class="">
</g><g id="svg_70" class="">
</g><g id="svg_71" class="">
</g><g id="svg_72" class="">
</g><g id="svg_73" class="">
</g><g id="svg_74" class="">
</g><g id="svg_75" class="">
</g><g id="svg_76" class="">
</g><g id="svg_77" class="">
</g><g id="svg_78" class="">
</g></g></g></svg>