<svg xmlns="http://www.w3.org/2000/svg" version="1" enable-background="new 0 0 48 48" width="80" height="80"><rect id="backgroundrect" width="100%" height="100%" x="0" y="0" fill="none" stroke="none" class="" style=""/>
    
    
    
    
    
    
    
    
    
    
    
    
    
<g class="currentLayer" style=""><title>Layer 1</title><g class=""><rect x="3.9719718545675278" y="36.0907728523016" fill="#fff999" width="72.04404187202454" height="36.02202093601227" id="svg_1" class="" fill-opacity="1"/><rect x="3.9719718545675278" y="72.11279559638103" fill="#a09c5e" width="72.04404187202454" height="7.583583354949951" id="svg_2" class="" fill-opacity="1"/><rect x="45.68168030679226" y="45.57025023792187" fill="#ed6e16" width="22.750750064849854" height="34.12612509727478" id="svg_3" class="" fill-opacity="1"/><rect x="11.555555209517479" y="45.57025023792187" fill="#E3F2FD" width="26.54254174232483" height="20.854854226112366" id="svg_4" class=""/><rect x="13.451451048254967" y="47.466146076659356" fill="#1E88E5" width="22.750750064849854" height="17.06306254863739" id="svg_5" class=""/><path fill="#b75514" d="M63.69269077479839,63.58126225973573 c-0.568768751621247,0 -0.9479479193687497,0.3791791677475026 -0.9479479193687497,0.9479479193687497 v3.7917916774749756 c0,0.568768751621247 0.3791791677475026,0.9479479193687497 0.9479479193687497,0.9479479193687497 S64.64063869416714,68.88977060820068 64.64063869416714,68.32100185657944 v-3.7917916774749756 C64.64063869416714,63.960441427483225 64.26145952641963,63.58126225973573 63.69269077479839,63.58126225973573 z" id="svg_6" class="" fill-opacity="1"/><g fill="#af5113" id="svg_7" class="" fill-opacity="1">
        <circle cx="39.993992790579796" cy="36.0907728523016" r="5.687687397003174" id="svg_8" fill="#af5113" fill-opacity="1"/>
        <circle cx="62.74474285542965" cy="36.0907728523016" r="5.687687397003174" id="svg_9" fill="#af5113" fill-opacity="1"/>
        <circle cx="17.243242725729942" cy="36.0907728523016" r="5.687687397003174" id="svg_10" fill="#af5113" fill-opacity="1"/>
    </g><path fill="#ed6e16" d="M70.3283262103796,11.444126694454816 H9.659659370779991 C7.574173948168755,11.444126694454816 5.8678676933050165,13.150432949318553 5.8678676933050165,15.235918371929788 v5.687687516212463 h68.25225019454956 V15.235918371929788 C74.12011788785458,13.150432949318553 72.41381163299084,11.444126694454816 70.3283262103796,11.444126694454816 z" id="svg_11" class="" fill-opacity="1"/><rect x="34.30630527436733" y="20.923606142401695" fill="#ed6e16" width="11.375375032424927" height="15.167166709899902" id="svg_12" class="" fill-opacity="1"/><polygon fill="#ed6e16" points="64.64064025878906,20.923597916960716 55.16115951538086,20.923597916960716 57.05705642700195,36.090744599699974 68.43243408203125,36.090744599699974 " id="svg_13" class="" fill-opacity="1"/><polygon fill="#ed6e16" points="15.347347259521484,20.923597916960716 24.826826095581055,20.923597916960716 22.93092918395996,36.090744599699974 11.55555534362793,36.090744599699974 " id="svg_14" class="" fill-opacity="1"/><g fill="#af5113" id="svg_15" class="" fill-opacity="1">
        <circle cx="51.36936782300472" cy="36.0907728523016" r="5.687687397003174" id="svg_16" fill="#af5113"/>
        <path d="M79.80780540406704,36.09077259804215 c0,3.2230229258537295 -2.4646645903587343,5.687687516212463 -5.687687516212463,5.687687516212463 s-5.687687516212463,-2.4646645903587343 -5.687687516212463,-5.687687516212463 s2.4646645903587343,-5.687687516212463 5.687687516212463,-5.687687516212463 L79.80780540406704,36.09077259804215 z" id="svg_17" fill="#af5113"/>
        <circle cx="28.61861775815487" cy="36.0907728523016" r="5.687687397003174" id="svg_18" fill="#af5113"/>
        <path d="M0.18018017709255219,36.09077259804215 c0,3.2230229258537295 2.4646645903587343,5.687687516212463 5.687687516212463,5.687687516212463 s5.687687516212463,-2.4646645903587343 5.687687516212463,-5.687687516212463 s-2.4646645903587343,-5.687687516212463 -5.687687516212463,-5.687687516212463 L0.18018017709255219,36.09077259804215 z" id="svg_19" fill="#af5113"/>
    </g><g fill="#ed6e16" id="svg_20" class="" fill-opacity="1">
        <polygon points="55.16115951538086,20.923597916960716 45.681678771972656,20.923597916960716 45.681678771972656,36.090744599699974 57.05705642700195,36.090744599699974 " id="svg_21" fill="#ed6e16"/>
        <polygon points="74.12012481689453,20.923597916960716 64.64064025878906,20.923597916960716 68.43243408203125,36.090744599699974 79.80780792236328,36.090744599699974 " id="svg_22" fill="#ed6e16"/>
        <polygon points="24.826826095581055,20.923597916960716 34.306304931640625,20.923597916960716 34.306304931640625,36.090744599699974 22.93092918395996,36.090744599699974 " id="svg_23" fill="#ed6e16"/>
        <polygon points="5.867867469787598,20.923597916960716 15.347347259521484,20.923597916960716 11.55555534362793,36.090744599699974 0.18018020689487457,36.090744599699974 " id="svg_24" fill="#ed6e16"/>
    </g></g></g></svg>