<svg xmlns="http://www.w3.org/2000/svg" xmlns:xlink="http://www.w3.org/1999/xlink" version="1.1" style="enable-background:new 0 0 182.116 182.116;" xml:space="preserve" width="80" height="80"><rect id="backgroundrect" width="100%" height="100%" x="0" y="0" fill="none" stroke="none" class="" style=""/>
















<g class="currentLayer" style=""><title>Layer 1</title><g id="svg_1" class="">
	<g id="svg_2">
		<path style="fill-rule:evenodd;clip-rule:evenodd;fill:#D9ECED;" d="M55.508970565915966,2.3494532487777975 c-10.963351344703637,0 -19.93796086400002,13.490481841077496 -20.683354485191337,30.57168649178533 c5.6752758434218515,4.472801228103785 12.863313977020889,7.147164544701165 20.683354485191337,7.147164544701165 c7.8200405081704485,0 15.007639140813593,-2.6739238156414897 20.683793986147226,-7.147164544701165 C75.44737093087188,15.839495588899403 66.47232191061961,2.3494532487777975 55.508970565915966,2.3494532487777975 z" id="svg_3"/>
		
			<ellipse transform="matrix(0.09919536574462262,-0.42816183122911533,0.42816183122911533,0.09919536574462262,-11.074820141804791,75.93629559031466) " style="fill-rule:evenodd;clip-rule:evenodd;fill:#E7B791;" cx="170.91591699717927" cy="97.57598734460267" rx="5.761000156402587" ry="3.687000036239623" id="svg_4"/>
		
			<ellipse transform="matrix(-0.09919536574462262,-0.42816183122911533,0.42816183122911533,-0.09919536574462262,-17.453605165321534,57.157694297859784) " style="fill-rule:evenodd;clip-rule:evenodd;fill:#E7B791;" cx="80.20094328478673" cy="115.39907300949899" rx="5.761000156402587" ry="3.687000036239623" id="svg_5"/>
		<path style="fill-rule:evenodd;clip-rule:evenodd;fill:#1A1A1A;" d="M38.763984146464836,26.903053151546217 c5.30961104812045,1.5720949192224873 13.868013162187955,7.4970073055904844 19.10906206118939,14.180058840870643 l1.5110042863536224,-1.2376346917893541 c-3.398660891905922,-5.77020804989433 -9.999086247478552,-12.72575017782697 -13.773520456671367,-15.04631522493201 C43.669254315165475,23.60459847758347 39.512893775303276,24.992981997243465 38.763984146464836,26.903053151546217 z" id="svg_6"/>
		<g id="svg_7">
			<path style="fill-rule:evenodd;clip-rule:evenodd;fill:#323232;" d="M36.84732047782372,78.16864215146425 c-0.4931200725098222,-10.588896530284416 -0.9853611431078574,-21.17779306056883 -1.47848121561768,-31.766250089897362 c2.280130959163057,0 4.5615804211937885,0 6.842150881312737,0 c-0.47554003427417685,10.588896530284416 -0.951959070460138,21.17779306056883 -1.4274991047343122,31.766250089897362 C39.47158068544952,78.16864215146425 38.15923083115867,78.16864215146425 36.84732047782372,78.16864215146425 z" id="svg_8"/>
			<path style="fill-rule:evenodd;clip-rule:evenodd;fill:#323232;" d="M30.432804026593033,78.16864215146425 c-0.4931200725098222,-10.588896530284416 -0.9858006440637506,-21.17779306056883 -1.4789207165735716,-31.766250089897362 c2.280570460118949,0 4.5620199221496796,0 6.842150881312737,0 c-0.47554003427417685,10.588896530284416 -0.9515195695042432,21.17779306056883 -1.4270596037784211,31.766250089897362 C33.05706423421883,78.16864215146425 31.74471437992798,78.16864215146425 30.432804026593033,78.16864215146425 z" id="svg_9"/>
		</g>
		<rect x="28.37549879129132" y="46.802779041884286" style="fill-rule:evenodd;clip-rule:evenodd;fill:#1A1A1A;" width="14.326412712832399" height="1.4850737073224451" id="svg_10"/>
		<path style="fill-rule:evenodd;clip-rule:evenodd;fill:#323232;" d="M42.70191271124914,47.50378145703002 l2.49153091894668,-22.95513492619246 l-5.59133116084665,-2.4431858137986575 H31.562321483233177 c-1.8639235539341827,0.8143952712662196 -4.456100191779923,1.4828762251765912 -5.59133116084665,2.4431858137986575 l2.4040702287243496,22.95513492619246 H42.70191271124914 z" id="svg_11"/>
		<polygon style="fill-rule:evenodd;clip-rule:evenodd;fill:#F5F0F0;" points="31.562318801879883,22.105463609099388 35.57936096191406,41.44394360482693 39.60211181640625,22.105463609099388 " id="svg_12"/>
		<g id="svg_13">
			<polygon style="fill-rule:evenodd;clip-rule:evenodd;fill:#1A1A1A;" points="31.562318801879883,22.105463609099388 27.791397094726562,26.335659608244896 32.15256881713867,30.074053391814232 29.037384033203125,32.098843201994896 35.57936096191406,41.44394360482693 " id="svg_14"/>
			<polygon style="fill-rule:evenodd;clip-rule:evenodd;fill:#1A1A1A;" points="39.60211181640625,22.105463609099388 43.367313385009766,26.335659608244896 39.00614547729492,30.074053391814232 42.1213264465332,32.098843201994896 35.57936096191406,41.44394360482693 " id="svg_15"/>
		</g>
		<polygon style="fill-rule:evenodd;clip-rule:evenodd;fill:#1A1A1A;" points="35.08667755126953,47.503777131438255 36.17707824707031,47.503777131438255 36.17707824707031,40.59043179452419 35.57936096191406,41.15739117562771 35.08667755126953,40.68975888192654 " id="svg_16"/>
		<polygon style="fill-rule:evenodd;clip-rule:evenodd;fill:#F5F0F0;" points="31.562318801879883,22.105463609099388 34.151859283447266,19.554598435759544 35.63209915161133,22.105463609099388 32.29541015625,25.628944978117943 " id="svg_17"/>
		<polygon style="fill-rule:evenodd;clip-rule:evenodd;fill:#F5F0F0;" points="39.60211181640625,22.105463609099388 37.07585906982422,19.554598435759544 35.63209915161133,22.105463609099388 38.8865966796875,25.628944978117943 " id="svg_18"/>
		<polygon style="fill-rule:evenodd;clip-rule:evenodd;fill:#323232;" points="32.29541015625,25.628944978117943 35.63209915161133,23.867422685027122 38.8865966796875,25.628944978117943 35.63209915161133,22.105463609099388 " id="svg_19"/>
		<polygon style="fill-rule:evenodd;clip-rule:evenodd;fill:#323232;" points="35.63209915161133,22.105463609099388 33.96375274658203,23.867422685027122 35.63209915161133,28.552502259612083 37.30000305175781,23.867422685027122 " id="svg_20"/>
		<polygon style="fill-rule:evenodd;clip-rule:evenodd;fill:#323232;" points="35.03437423706055,26.87448750436306 36.14323806762695,26.87448750436306 37.5909538269043,31.774487122893333 35.57936096191406,41.44394360482693 33.57128143310547,31.774487122893333 " id="svg_21"/>
		<path style="fill-rule:evenodd;clip-rule:evenodd;fill:#1A1A1A;" d="M30.46181108968185,80.13057441856215 c2.1517966800428545,0 3.907163497871932,-0.8816389175175612 3.907163497871932,-1.9623717680537878 s-1.75492731687319,-1.9623717680537878 -3.907163497871932,-1.9623717680537878 c-2.1517966800428545,0 -3.907163497871932,0.8816389175175612 -3.907163497871932,1.9623717680537878 S28.310014409638992,80.13057441856215 30.46181108968185,80.13057441856215 z" id="svg_22"/>
		<path style="fill-rule:evenodd;clip-rule:evenodd;fill:#1A1A1A;" d="M40.754044474739764,80.13057441856215 c2.1517966800428545,0 3.907602998827823,-0.8816389175175612 3.907602998827823,-1.9623717680537878 s-1.7553668178290778,-1.9623717680537878 -3.907602998827823,-1.9623717680537878 c-2.1517966800428545,0 -3.907163497871932,0.8816389175175612 -3.907163497871932,1.9623717680537878 S38.60268729565279,80.13057441856215 40.754044474739764,80.13057441856215 z" id="svg_23"/>
		<path style="fill-rule:evenodd;clip-rule:evenodd;fill:#E7B791;" d="M35.63210033478481,22.099307703656425 c6.50944865770317,0 11.818180703911839,-4.0926329012579785 11.818180703911839,-9.109975813710845 c0,-5.017782413408756 -5.308732046208669,-9.109975813710845 -11.818180703911839,-9.109975813710845 c-6.509009156747278,0 -11.818180703911839,4.0921934003020874 -11.818180703911839,9.109975813710845 C23.81391963087298,18.006674802398443 29.123091178037534,22.099307703656425 35.63210033478481,22.099307703656425 z" id="svg_24"/>
		<g id="svg_25">
			<path style="fill-rule:evenodd;clip-rule:evenodd;fill:#323232;" d="M30.73781768998146,15.380217089993195 c0.3617092866983804,0 0.656614428101314,-0.5159741222161586 0.656614428101314,-1.1492949996552422 c0,-0.6328813764831975 -0.2949051414029323,-1.1492949996552422 -0.656614428101314,-1.1492949996552422 c-0.3617092866983804,0 -0.656614428101314,0.5164136231720479 -0.656614428101314,1.1492949996552422 C30.081203261880148,14.864242967777042 30.37610840328308,15.380217089993195 30.73781768998146,15.380217089993195 z" id="svg_26"/>
			<path style="fill-rule:evenodd;clip-rule:evenodd;fill:#323232;" d="M37.923218817845154,15.380217089993195 c0.3617092866983804,0 0.656614428101314,-0.5159741222161586 0.656614428101314,-1.1492949996552422 c0,-0.6328813764831975 -0.2949051414029323,-1.1492949996552422 -0.656614428101314,-1.1492949996552422 c-0.3617092866983804,0 -0.656614428101314,0.5164136231720479 -0.656614428101314,1.1492949996552422 C37.26660438974384,14.864242967777042 37.56150953114677,15.380217089993195 37.923218817845154,15.380217089993195 z" id="svg_27"/>
		</g>
		<path style="fill-rule:evenodd;clip-rule:evenodd;fill:#5E3A1D;" d="M40.2086237884789,2.0681726370074895 c-1.177862561788164,4.9707558111284085 3.685655016102815,10.479460792267531 7.448222699486571,10.367388048515297 C48.266434313786434,8.335456268014664 44.557485747021396,2.8179612677577195 40.2086237884789,2.0681726370074895 z" id="svg_28"/>
		<path style="fill-rule:evenodd;clip-rule:evenodd;fill:#C79369;" d="M38.756512630214694,18.20488973350534 c-1.6999896973868023,0.3291862159624404 -5.861184747763788,0.3001791528736258 -7.7998234641994575,0 C32.95861602009922,20.609838964141463 37.1598056574623,20.693344145760772 38.756512630214694,18.20488973350534 z" id="svg_29"/>
		<path style="fill-rule:evenodd;clip-rule:evenodd;fill:#E7B791;" d="M49.45001038800118,27.265641440156372 c-3.9106795055190595,4.147570520744367 -6.375840367112274,10.987084396321755 -13.051859887098171,15.418572534571776 l1.0517257874474166,1.5132017911330777 c5.680110353936653,-2.7666585173345126 10.960714338968291,-7.180127116392998 13.42499619864972,-10.557252461460255 C52.142393243790096,31.90325552671932 50.77730327479233,25.857919878437155 49.45001038800118,27.265641440156372 z" id="svg_30"/>
		<path style="fill-rule:evenodd;clip-rule:evenodd;fill:#E7B791;" d="M55.16528081840912,26.589249469039963 c4.00165620338852,3.358666304919832 9.1763404580504,11.705228958247824 11.19540784941414,19.459783823990495 l1.772946856064721,-0.5023495925835366 c-0.7686871718535446,-6.2712391396101905 -3.861015897503366,-14.772506129411854 -6.253219600418656,-18.201053086318367 C60.650252747930125,25.582352779093444 56.53256829218636,25.219324989527387 55.16528081840912,26.589249469039963 z" id="svg_31"/>
		<g id="svg_32">
			<path style="fill-rule:evenodd;clip-rule:evenodd;fill:#E7B791;" d="M56.71144518123404,78.27939639234883 c-0.4654315122886811,-9.989856727404838 -0.9299840226655831,-19.979713454809676 -1.3954155349542616,-29.96957018221451 c2.151357179086964,0 4.303593360085709,0 6.455390040128565,0 c-0.448730475964821,9.989856727404838 -0.8974609519296385,19.979713454809676 -1.3466309288503484,29.96957018221451 C59.18715406576864,78.27939639234883 57.9490798730234,78.27939639234883 56.71144518123404,78.27939639234883 z" id="svg_33"/>
			<path style="fill-rule:evenodd;clip-rule:evenodd;fill:#E7B791;" d="M50.65951701861351,78.27939639234883 c-0.4654315122886811,-9.989856727404838 -0.9299840226655831,-19.979713454809676 -1.3949760339983703,-29.96957018221451 c2.1517966800428545,0 4.303593360085709,0 6.455390040128565,0 c-0.448730475964821,9.989856727404838 -0.8979004528855328,19.979713454809676 -1.3461914278944582,29.96957018221451 C53.13522590314811,78.27939639234883 51.89715171040286,78.27939639234883 50.65951701861351,78.27939639234883 z" id="svg_34"/>
		</g>
		<rect x="52.96162259637097" y="21.232172357920785" style="fill-rule:evenodd;clip-rule:evenodd;fill:#C79369;" width="5.112714784184418" height="7.215287112389257" id="svg_35"/>
		<path style="fill-rule:evenodd;clip-rule:evenodd;fill:#E7B791;" d="M58.69886850377361,41.642596709266236 l2.9314713757936763,-14.598024249923085 l-3.556002234114938,-1.5536358790750602 h-5.112714619881236 c-1.184894577082422,0.6069508200856176 -2.7939075765997616,1.0183237147996924 -3.5555627331590465,1.8212919612127432 l2.891916289763477,14.3303681677854 H58.69886850377361 z" id="svg_36"/>
		<path style="fill-rule:evenodd;clip-rule:evenodd;fill:#F5F0F0;" d="M50.68676607787876,80.13057441856215 c2.0304944162169094,0 3.6865340180145987,-0.8319753095018646 3.6865340180145987,-1.8511780262133386 c0,-1.0196422176673658 -1.656039601797688,-1.8516175271692301 -3.6865340180145987,-1.8516175271692301 c-2.030054915261018,0 -3.6860945170587067,0.8319753095018646 -3.6860945170587067,1.8516175271692301 C47.00067156082006,79.29859910906029 48.65671116261774,80.13057441856215 50.68676607787876,80.13057441856215 z" id="svg_37"/>
		<path style="fill-rule:evenodd;clip-rule:evenodd;fill:#F5F0F0;" d="M60.39753969829274,80.13057441856215 c2.030054915261018,0 3.6860945170587067,-0.8319753095018646 3.6860945170587067,-1.8511780262133386 c0,-1.0196422176673658 -1.656039601797688,-1.8516175271692301 -3.6860945170587067,-1.8516175271692301 c-2.030054915261018,0 -3.6860945170587067,0.8319753095018646 -3.6860945170587067,1.8516175271692301 C56.71144518123404,79.29859910906029 58.36748478303172,80.13057441856215 60.39753969829274,80.13057441856215 z" id="svg_38"/>
		<path style="fill-rule:evenodd;clip-rule:evenodd;fill:#E7B791;" d="M69.70221443546333,46.29823033502072 c0.2856756213292202,0.6122248315563121 0.07647316632505252,0.9313025255332525 -0.4003853708167978,0.9695391086957796 c0.5361911661871491,0.8455998391344912 0.26414007449055493,1.8705160682725466 -0.2118394607395132,2.0933430529093373 c-0.9260285140625606,0.43290844155274033 -2.1535546838664192,-0.23601201331352395 -2.742046463804609,-1.49430325002976 c-0.588491779938193,-1.2582912367162362 -0.3146826844180323,-2.6295342190964863 0.6117853306004218,-3.062882161605117 C67.88575698476542,44.370579142482335 69.11372265552517,45.03993909830449 69.70221443546333,46.29823033502072 z" id="svg_39"/>
		<path style="fill-rule:evenodd;clip-rule:evenodd;fill:#1A1A1A;" d="M26.231174888274065,24.219460314875125 c1.2591702386280186,5.226984868412923 4.254808753981797,12.905945569742324 8.740795010762316,17.809018233663505 l-0.7062780361170098,1.571655418266599 c-3.8166263009583643,-3.10771125910601 -7.365596519779045,-8.779031593924842 -9.02119662062084,-12.434361044071169 C24.39230288882567,29.285148332476005 25.061662844647827,25.06330215018604 26.231174888274065,24.219460314875125 z" id="svg_40"/>
		<path style="fill-rule:evenodd;clip-rule:evenodd;fill:#E7B791;" d="M37.12640358481458,42.455673477664796 c0.5370701680989315,0.47378203045061235 0.467629017068137,0.8728488983997397 0.021096045882773175,1.111497917448607 c0.8785624108263205,0.5955237952324485 1.0477702788443963,1.7065822117251646 0.6790289768517607,2.124108119821715 c-0.7168260590583964,0.812637267442655 -2.192670268940727,0.681226481631215 -3.297136171095077,-0.293147137579368 c-1.1040264011984582,-0.9743736192105826 -1.4178300837047084,-2.4229687698276674 -0.7005645236904235,-3.2351665363144306 C34.545653971822006,41.34988907264277 36.022377183616115,41.4812998584542 37.12640358481458,42.455673477664796 z" id="svg_41"/>
		<path style="fill-rule:evenodd;clip-rule:evenodd;fill:#E7B791;" d="M35.09283266190642,42.54972668222548 c-0.5063051011865535,0.44741197309714803 -0.4416984606705626,0.8236247913399336 -0.019777543015099847,1.0490887817120698 c-0.8288988028106274,0.5612427206729415 -0.988437649799096,1.6098920014291211 -0.6407923936892342,2.0041243588634434 c0.6763919711164142,0.7664896670740908 2.0691705003353267,0.6425503975127976 3.1107877657972476,-0.2768856022113968 c1.04117776450603,-0.9189964987683026 1.3374014087766355,-2.2854049706337514 0.6605699367043326,-3.0518946377078393 C37.52722845658727,41.506790913895884 36.134449927368344,41.63073018345717 35.09283266190642,42.54972668222548 z" id="svg_42"/>
		<path style="fill-rule:evenodd;clip-rule:evenodd;fill:#F5F0F0;" d="M59.640279551292366,41.642596709266236 l1.4340916190726791,-9.479156616659374 c0.025491055441684222,-0.11602825235525249 0.03867608411841752,-0.23513301140174175 0.03867608411841752,-0.3564352752276882 c0,-1.2319211793627698 -1.354102445100498,-2.2309068521032533 -3.025524580354373,-2.2309068521032533 c-1.0904018715658341,0 -2.04631645062899,0.4254369253025921 -2.5785521082131178,1.0635923132564762 c-0.5322356575841312,-0.6381553879538876 -1.4881502366472847,-1.0635923132564762 -2.5785521082131178,-1.0635923132564762 c-1.6714221352538767,0 -3.025524580354373,0.9989856727404857 -3.025524580354373,2.2309068521032533 c0,0.11734675522292563 0.011866525809059945,0.2324960056663958 0.03559957742717963,0.34500825037452 l1.4024475502485194,9.490583641512544 H59.640279551292366 z" id="svg_43"/>
		<path style="fill-rule:evenodd;clip-rule:evenodd;fill:#F5F0F0;" d="M55.508970565915966,40.56010585490644 c-10.963351344703637,0 -19.93796086400002,13.490481841077496 -20.683354485191337,30.57212599274122 c5.6752758434218515,4.472801228103785 12.863313977020889,7.147164544701165 20.683354485191337,7.147164544701165 c7.8200405081704485,0 15.007639140813593,-2.67436331659738 20.683793986147226,-7.147164544701165 C75.44737093087188,54.05102719693983 66.47232191061961,40.56010585490644 55.508970565915966,40.56010585490644 z" id="svg_44"/>
		<path style="fill-rule:evenodd;clip-rule:evenodd;fill:#E7B791;" d="M59.86486453975272,42.9839536266459 c0.6579329309689866,0 1.195003099067917,-0.859663869723003 1.195003099067917,-1.913587161949875 c0,-1.0534837912709811 -0.5370701680989315,-1.913587161949875 -1.195003099067917,-1.913587161949875 c-0.6574934300130988,0 -1.1941240971561347,0.8601033706788974 -1.1941240971561347,1.913587161949875 C58.67074044259659,42.124289756922884 59.20737110973963,42.9839536266459 59.86486453975272,42.9839536266459 z" id="svg_45"/>
		<path style="fill-rule:evenodd;clip-rule:evenodd;fill:#D9ECED;" d="M14.536933453923519,47.44708583372008 l13.401263147031601,-2.69853586917139 l3.604786840218851,-0.7256160781762162 l6.562188772410103,-1.3211398734086643 l0.2979816480941703,1.47848121561768 l-6.562188772410103,1.3215793743645556 l0.2975421471382793,1.47848121561768 C26.808679144314972,48.374432850650294 17.30183396743446,50.51304450201644 14.536933453923519,47.44708583372008 z" id="svg_46"/>
		<g id="svg_47">
			<path style="fill-rule:evenodd;clip-rule:evenodd;fill:#F5F0F0;" d="M13.363465901694266,26.057013811455832 h7.735216823683465 c1.3905810244394594,0 2.528009498285641,1.1374284738461822 2.528009498285641,2.5284489992415327 v9.996888742699095 H10.835016902452736 V28.585462810697358 C10.835016902452736,27.194881786257906 11.9728848772548,26.057013811455832 13.363465901694266,26.057013811455832 z" id="svg_48"/>
			<path style="fill-rule:evenodd;clip-rule:evenodd;fill:#F5F0F0;" d="M10.937860126131252,35.96292585628547 H23.52428850094074 c1.3905810244394594,0 2.5284489992415327,1.1374284738461822 2.5284489992415327,2.528009498285641 v9.996449241743205 H8.409411126889715 V38.49093535457112 C8.409411126889715,37.10035433013166 9.547279101691792,35.96292585628547 10.937860126131252,35.96292585628547 z" id="svg_49"/>
			<path style="fill-rule:evenodd;clip-rule:evenodd;fill:#F5F0F0;" d="M8.129449017987078,46.189673598915604 h18.20237158918604 c1.3905810244394594,0 2.5284489992415327,1.1378679748020732 2.5284489992415327,2.5284489992415327 v9.996449241743205 H5.601439519701443 v-9.996449241743205 C5.601439519701443,47.32754157371768 6.739307494503512,46.189673598915604 8.129449017987078,46.189673598915604 z" id="svg_50"/>
		</g>
		<path style="fill-rule:evenodd;clip-rule:evenodd;fill:#E7B791;" d="M36.17708152008978,46.34525693730106 c1.058757802741674,0 1.9223771810676973,-0.7295715867792364 1.9223771810676973,-1.624395532973531 c0,-0.8943844452384024 -0.8636193783260236,-1.6239560320176367 -1.9223771810676973,-1.6239560320176367 c-1.0591973036975653,0 -1.9228166820235892,0.7295715867792364 -1.9228166820235892,1.6239560320176367 C34.2542648380662,45.61524584956594 35.11788421639222,46.34525693730106 36.17708152008978,46.34525693730106 z" id="svg_51"/>
		<rect x="3.544135719537735" y="58.71457205450043" style="fill-rule:evenodd;clip-rule:evenodd;fill:#1A1A1A;" width="27.372999192022593" height="2.352209219876111" id="svg_52"/>
		<rect x="14.810741986118472" y="58.71457205450043" style="fill-rule:evenodd;clip-rule:evenodd;fill:#1A1A1A;" width="4.840223822688052" height="19.698871968445125" id="svg_53"/>
		<rect x="10.888196290102972" y="77.77792601627714" style="fill-rule:evenodd;clip-rule:evenodd;fill:#1A1A1A;" width="12.684876374329022" height="2.352209219876111" id="svg_54"/>
		<path style="fill:#CCCCCC;" d="M10.835016902452736,35.96512336106494 c-0.30061865382951786,0 -0.5441021833931896,-0.2439230305195645 -0.5441021833931896,-0.5441021833931896 s0.24348352956367272,-0.5441021833931896 0.5441021833931896,-0.5441021833931896 c0.1643733575032744,0 0.31292468059446993,-0.4447749673618017 0.46675001515635434,-0.9040534662680056 c0.293147137579368,-0.8768044070027566 0.5964027971442305,-1.7839343799619987 1.6652691218714009,-1.7839343799619987 c1.0693058256830608,0 1.3725614852479238,0.9071299729592427 1.6657086228272928,1.7839343799619987 c0.15382533456188782,0.4592784989062059 0.3023766576530822,0.9040534662680056 0.4663105142004649,0.9040534662680056 c0.16481285845916546,0 0.31292468059446993,-0.4447749673618017 0.46675001515635434,-0.9040534662680056 c0.293147137579368,-0.8768044070027566 0.5964027971442305,-1.7839343799619987 1.6657086228272928,-1.7839343799619987 c1.0693058256830608,0 1.3725614852479238,0.9071299729592427 1.6657086228272928,1.7839343799619987 c0.15338583360599656,0.4592784989062059 0.3023766576530822,0.9040534662680056 0.46675001515635434,0.9040534662680056 s0.31292468059446993,-0.4447749673618017 0.46675001515635434,-0.9040534662680056 c0.293147137579368,-0.8768044070027566 0.5964027971442305,-1.7839343799619987 1.6652691218714009,-1.7839343799619987 c1.0693058256830608,0 1.3725614852479238,0.9071299729592427 1.6657086228272928,1.7839343799619987 c0.15338583360599656,0.4592784989062059 0.30193715669719023,0.9040534662680056 0.4663105142004649,0.9040534662680056 c0.30061865382951786,0 0.5441021833931896,0.24348352956367272 0.5441021833931896,0.5441021833931896 s-0.2439230305195645,0.5441021833931896 -0.5441021833931896,0.5441021833931896 c-0.944048053254099,0 -1.2152201430389078,-0.8104397626632006 -1.4951822519415425,-1.6481285845916471 c-0.17096587184164044,-0.5107001107454655 -0.3476452561098662,-1.0398592616383568 -0.6368368850862125,-1.0398592616383568 c-0.2887521280204568,0 -0.4658710132445738,0.5291591508928917 -0.6368368850862125,1.0398592616383568 c-0.27996210890263556,0.8376888219284486 -0.550694697731558,1.6481285845916471 -1.4951822519415425,1.6481285845916471 c-0.9444875542099864,0 -1.2152201430389078,-0.8104397626632006 -1.4951822519415425,-1.6481285845916471 c-0.17096587184164044,-0.5107001107454655 -0.3480847570657582,-1.0398592616383568 -0.6368368850862125,-1.0398592616383568 s-0.4658710132445738,0.5291591508928917 -0.6368368850862125,1.0398592616383568 c-0.27996210890263556,0.8376888219284486 -0.550694697731558,1.6481285845916471 -1.4951822519415425,1.6481285845916471 c-0.944048053254099,0 -1.2152201430389078,-0.8104397626632006 -1.4951822519415425,-1.6481285845916471 c-0.17096587184164044,-0.5107001107454655 -0.3476452561098662,-1.0398592616383568 -0.6368368850862125,-1.0398592616383568 c-0.289191628976348,0 -0.4658710132445738,0.5291591508928917 -0.6368368850862125,1.0398592616383568 C12.050237045491638,35.15468359840173 11.779504456662716,35.96512336106494 10.835016902452736,35.96512336106494 L10.835016902452736,35.96512336106494 zM8.409411126889715,46.189673598915604 c-0.30061865382951786,0 -0.5441021833931896,-0.2439230305195645 -0.5441021833931896,-0.5441021833931896 c0,-0.30061865382951786 0.2439230305195645,-0.5436626824372981 0.5441021833931896,-0.5436626824372981 c0.18854591007728527,0 0.3428107455950644,-0.4469724721412565 0.5023495925835366,-0.9080089748710253 c0.3023766576530822,-0.8746069022233034 0.6153013382475486,-1.779978871358979 1.7030662040780353,-1.779978871358979 c1.0877648658304873,0 1.4006895464249551,0.9053719691356789 1.7030662040780353,1.779978871358979 c0.15953884698847212,0.46147600368566305 0.31380368250625085,0.9080089748710253 0.5023495925835366,0.9080089748710253 c0.18854591007728527,0 0.3428107455950644,-0.4469724721412565 0.5023495925835366,-0.9080089748710253 c0.3023766576530822,-0.8746069022233034 0.6153013382475486,-1.779978871358979 1.7026267031221447,-1.779978871358979 c1.0877648658304873,0 1.4006895464249551,0.9058114700915696 1.7030662040780353,1.779978871358979 c0.15953884698847212,0.46147600368566305 0.3142431834621413,0.9080089748710253 0.5023495925835366,0.9080089748710253 c0.18854591007728527,0 0.3432502465509543,-0.4469724721412565 0.5027890935394272,-0.9080089748710253 c0.3023766576530822,-0.8746069022233034 0.6153013382475486,-1.779978871358979 1.7030662040780353,-1.779978871358979 c1.0877648658304873,0 1.4006895464249551,0.9053719691356789 1.7030662040780353,1.779978871358979 c0.15953884698847212,0.46147600368566305 0.31380368250625085,0.9080089748710253 0.5023495925835366,0.9080089748710253 c0.18854591007728527,0 0.3428107455950644,-0.4469724721412565 0.5023495925835366,-0.9080089748710253 c0.3023766576530822,-0.8746069022233034 0.6157408392034431,-1.779978871358979 1.7030662040780353,-1.779978871358979 c1.0877648658304873,0 1.4006895464249551,0.9053719691356789 1.7030662040780353,1.779978871358979 c0.15953884698847212,0.46147600368566305 0.31380368250625085,0.9080089748710253 0.5023495925835366,0.9080089748710253 c0.30061865382951786,0 0.5441021833931896,0.24348352956367272 0.5441021833931896,0.5436626824372981 c0,0.30061865382951786 -0.2439230305195645,0.5441021833931896 -0.5441021833931896,0.5441021833931896 c-0.9581120838426092,0 -1.2380741927452454,-0.8082422578837446 -1.5268263207657018,-1.6432940740768451 c-0.1771188852241158,-0.5128976155249206 -0.3612697857424905,-1.0442542711972678 -0.6785894758958677,-1.0442542711972678 c-0.3177591911092709,0 -0.5014705906717515,0.5313566556723465 -0.6785894758958677,1.0442542711972678 c-0.2887521280204568,0.8350518161931059 -0.5682747359671999,1.6432940740768451 -1.5268263207657018,1.6432940740768451 c-0.9585515847985023,0 -1.2380741927452454,-0.8082422578837446 -1.5268263207657018,-1.6432940740768451 c-0.1771188852241158,-0.5128976155249206 -0.3608302847865984,-1.0442542711972678 -0.6785894758958677,-1.0442542711972678 c-0.31731969015337996,0 -0.5014705906717515,0.5313566556723465 -0.6785894758958677,1.0442542711972678 c-0.2887521280204568,0.8350518161931059 -0.5687142369230942,1.6432940740768451 -1.5268263207657018,1.6432940740768451 c-0.9585515847985023,0 -1.2376346917893541,-0.8078027569278523 -1.5268263207657018,-1.6432940740768451 c-0.1771188852241158,-0.5128976155249206 -0.3612697857424905,-1.0442542711972678 -0.6790289768517607,-1.0442542711972678 c-0.31731969015337996,0 -0.5010310897158592,0.5313566556723465 -0.6781499749399794,1.0442542711972678 c-0.2887521280204568,0.8350518161931059 -0.5687142369230942,1.6432940740768451 -1.5268263207657018,1.6432940740768451 c-0.9585515847985023,0 -1.2380741927452454,-0.8082422578837446 -1.5268263207657018,-1.6432940740768451 c-0.1771188852241158,-0.5128976155249206 -0.3612697857424905,-1.0442542711972678 -0.6785894758958677,-1.0442542711972678 c-0.31731969015337996,0 -0.5010310897158592,0.5313566556723465 -0.6785894758958677,1.0442542711972678 C9.647485319634965,45.38143134103186 9.36752321073233,46.189673598915604 8.409411126889715,46.189673598915604 L8.409411126889715,46.189673598915604 zM5.601439519701443,58.71457183990035 c-0.30061865382951786,0 -0.5441021833931896,-0.24348352956367272 -0.5441021833931896,-0.5436626824372981 s0.24348352956367272,-0.5441021833931896 0.5441021833931896,-0.5441021833931896 c0.22546399037213852,0 0.3902768488313024,-0.4509279807442762 0.5599242178052696,-0.9167989939888487 c0.31731969015337996,-0.8697723917084986 0.646066405159926,-1.7711888522411572 1.765914840770464,-1.7711888522411572 c1.119848435610538,0 1.4485951506170853,0.9014164605326556 1.765914840770464,1.771628353197048 c0.17008686992985778,0.4658710132445738 0.3344602274331323,0.9163594930329555 0.5599242178052696,0.9163594930329555 c0.22546399037213852,0 0.3902768488313024,-0.4509279807442762 0.5599242178052696,-0.9167989939888487 c0.31731969015337996,-0.8697723917084986 0.646066405159926,-1.7711888522411572 1.765914840770464,-1.7711888522411572 c1.119848435610538,0 1.4485951506170853,0.9014164605326556 1.766354341726355,1.771628353197048 c0.16964736897396757,0.4654315122886811 0.3344602274331323,0.9163594930329555 0.5599242178052696,0.9163594930329555 s0.3902768488313024,-0.4509279807442762 0.5599242178052696,-0.9167989939888487 c0.31731969015337996,-0.8697723917084986 0.646066405159926,-1.7711888522411572 1.766354341726355,-1.7711888522411572 c1.119848435610538,0 1.4481556496611938,0.9014164605326556 1.765914840770464,1.7711888522411572 c0.16964736897396757,0.4658710132445738 0.3344602274331323,0.9167989939888487 0.5599242178052696,0.9167989939888487 c0.22546399037213852,0 0.3902768488313024,-0.4509279807442762 0.5599242178052696,-0.9167989939888487 c0.31731969015337996,-0.8697723917084986 0.646066405159926,-1.7711888522411572 1.765914840770464,-1.7711888522411572 c1.119848435610538,0 1.4485951506170853,0.9014164605326556 1.765914840770464,1.7711888522411572 c0.16964736897396757,0.4658710132445738 0.3344602274331323,0.9167989939888487 0.5599242178052696,0.9167989939888487 c0.22590349132802956,0 0.3902768488313024,-0.4509279807442762 0.5599242178052696,-0.9167989939888487 c0.31731969015337996,-0.8697723917084986 0.646066405159926,-1.7711888522411572 1.765914840770464,-1.7711888522411572 c1.119848435610538,0 1.4485951506170853,0.9014164605326556 1.765914840770464,1.7711888522411572 c0.17008686992985778,0.4658710132445738 0.3344602274331323,0.9167989939888487 0.5599242178052696,0.9167989939888487 c0.3001791528736258,0 0.5441021833931896,0.2439230305195645 0.5441021833931896,0.5441021833931896 s-0.2439230305195645,0.5436626824372981 -0.5441021833931896,0.5436626824372981 c-0.983603139284295,0 -1.277189777819554,-0.8038472483248345 -1.5804454373844208,-1.6349435559149144 c-0.18854591007728527,-0.5172926250838314 -0.3841238354488278,-1.0530442903150898 -0.7458331221472069,-1.0530442903150898 c-0.3617092866983804,0 -0.5572872120699226,0.5357516652312582 -0.7458331221472069,1.0530442903150898 c-0.3028161586089728,0.8310963075900835 -0.5959632961883419,1.6349435559149144 -1.5800059364285306,1.6349435559149144 c-0.983603139284295,0 -1.277189777819554,-0.8038472483248345 -1.5800059364285306,-1.6349435559149144 c-0.18854591007728527,-0.5172926250838314 -0.3841238354488278,-1.0530442903150898 -0.7458331221472069,-1.0530442903150898 c-0.3617092866983804,0 -0.5572872120699226,0.5357516652312582 -0.7458331221472069,1.0530442903150898 c-0.3028161586089728,0.8310963075900835 -0.5964027971442305,1.6349435559149144 -1.5800059364285306,1.6349435559149144 c-0.9840426402401866,0 -1.277189777819554,-0.8038472483248345 -1.5800059364285306,-1.6349435559149144 c-0.18854591007728527,-0.5172926250838314 -0.3841238354488278,-1.0530442903150898 -0.7458331221472069,-1.0530442903150898 c-0.36214878765427305,0 -0.5577267130258151,0.5357516652312582 -0.7458331221472069,1.0530442903150898 c-0.3028161586089728,0.8310963075900835 -0.5964027971442305,1.6349435559149144 -1.5800059364285306,1.6349435559149144 c-0.9840426402401866,0 -1.277189777819554,-0.8038472483248345 -1.5800059364285306,-1.6349435559149144 c-0.18854591007728527,-0.5172926250838314 -0.3841238354488278,-1.0530442903150898 -0.7458331221472069,-1.0530442903150898 c-0.3617092866983804,0 -0.5568477111140316,0.5357516652312582 -0.7458331221472069,1.0530442903150898 c-0.3028161586089728,0.8310963075900835 -0.5964027971442305,1.6349435559149144 -1.5800059364285306,1.6349435559149144 c-0.983603139284295,0 -1.277189777819554,-0.8038472483248345 -1.5800059364285306,-1.6349435559149144 c-0.18854591007728527,-0.5172926250838314 -0.3841238354488278,-1.0530442903150898 -0.7458331221472069,-1.0530442903150898 c-0.3617092866983804,0 -0.5568477111140316,0.5357516652312582 -0.7458331221472069,1.0530442903150898 C6.8786292975209955,57.91072459157552 6.585042658985734,58.71457183990035 5.601439519701443,58.71457183990035 z" id="svg_55"/>
		<g id="svg_56">
			<g id="svg_57">
				
					<ellipse transform="matrix(0.09932721603138994,-0.4281178811335263,0.4281178811335263,0.09932721603138994,-39.65512780244752,55.24388738543196) " style="fill-rule:evenodd;clip-rule:evenodd;fill:#E7B791;" cx="108.82163434607521" cy="114.92748112362358" rx="0.5180000066757202" ry="0.3319999873638153" id="svg_58"/>
				
					<ellipse transform="matrix(-0.09906351545785527,-0.4282057813247045,0.4282057813247045,-0.09906351545785527,-32.91243598745294,62.07667689638423) " style="fill-rule:evenodd;clip-rule:evenodd;fill:#E7B791;" cx="67.1014399412727" cy="134.96145156026319" rx="0.5180000066757187" ry="0.3310000002384178" id="svg_59"/>
				<g id="svg_60">
					<path style="fill-rule:evenodd;clip-rule:evenodd;fill:#1A1A1A;" d="M18.40981587723594,21.16361016856426 c-0.17843738809178977,0.4645525103768993 -0.6029953114826004,1.0675478218594963 -1.2385136937011367,1.4894687395149586 l0.10020621794317255,0.14415631353228325 c0.5410256767019513,-0.26326107257877224 1.0438147702413765,-0.6838634873665632 1.2785082806872272,-1.0051386861229592 C18.670439944079366,21.6259651741617 18.575507737606884,21.244038843492334 18.40981587723594,21.16361016856426 z" id="svg_61"/>
					<path style="fill-rule:evenodd;clip-rule:evenodd;fill:#1A1A1A;" d="M19.557352873067618,21.369736116877192 c0.47685853714185167,0.1410798068410452 1.2459852099512851,0.673754965381066 1.717130234666552,1.274113271128316 l0.1358057953703519,-0.11119374184045044 c-0.30545316434432007,-0.518611127951505 -0.8987794547973138,-1.1435814872286576 -1.2376346917893541,-1.3519049403210421 C19.99773283087051,21.073072971650685 19.62459651931895,21.19789124312377 19.557352873067618,21.369736116877192 z" id="svg_62"/>
					<g id="svg_63">
						<path style="fill-rule:evenodd;clip-rule:evenodd;fill:#323232;" d="M19.385068498358304,25.975706134615972 c-0.044389596545001936,-0.9515195695042432 -0.08877919309000362,-1.9030391390084889 -0.13272928867911393,-2.8545587085127333 c0.20480744544525592,0 0.4100543918464032,0 0.614861837291659,0 c-0.04263159272143761,0.9515195695042432 -0.08570268639876592,1.9030391390084889 -0.1283342791202029,2.8545587085127333 C19.620641010715932,25.975706134615972 19.50285475453712,25.975706134615972 19.385068498358304,25.975706134615972 z" id="svg_64"/>
						<path style="fill-rule:evenodd;clip-rule:evenodd;fill:#323232;" d="M18.80888274518506,25.975706134615972 c-0.044389596545001936,-0.9515195695042432 -0.08877919309000362,-1.9030391390084889 -0.1331687896350052,-2.8545587085127333 c0.20480744544525592,0 0.4100543918464032,0 0.614861837291659,0 c-0.04263159272143761,0.9515195695042432 -0.08526318544287509,1.9030391390084889 -0.1283342791202029,2.8545587085127333 C19.044455257542694,25.975706134615972 18.92666900136388,25.975706134615972 18.80888274518506,25.975706134615972 z" id="svg_65"/>
					</g>
					<rect x="18.6238533792551" y="23.157187014161497" style="fill-rule:evenodd;clip-rule:evenodd;fill:#1A1A1A;" width="1.2872982562144086" height="0.13360828629470328" id="svg_66"/>
					<path style="fill-rule:evenodd;clip-rule:evenodd;fill:#323232;" d="M19.911151142559955,23.220474642134633 l0.22370598654857382,-2.0625779859969597 l-0.5023495925835366,-0.21975047794555302 h-0.7225395714849789 c-0.16744986419451227,0.07339665963381503 -0.4003853708167978,0.1331687896350052 -0.5027890935394272,0.21975047794555302 l0.21623447029842494,2.0625779859969597 H19.911151142559955 z" id="svg_67"/>
					<polygon style="fill-rule:evenodd;clip-rule:evenodd;fill:#F5F0F0;" points="18.910404205322266,20.938150987029076 19.27123260498047,22.67593441903591 19.632503509521484,20.938150987029076 " id="svg_68"/>
					<g id="svg_69">
						<polygon style="fill-rule:evenodd;clip-rule:evenodd;fill:#1A1A1A;" points="18.910404205322266,20.938150987029076 18.571550369262695,21.318758592009544 18.963144302368164,21.654533967375755 18.68317985534668,21.836487397551537 19.27123260498047,22.67593441903591 " id="svg_70"/>
						<polygon style="fill-rule:evenodd;clip-rule:evenodd;fill:#1A1A1A;" points="19.632503509521484,20.938150987029076 19.97092056274414,21.318758592009544 19.578886032104492,21.654533967375755 19.858844757080078,21.836487397551537 19.27123260498047,22.67593441903591 " id="svg_71"/>
					</g>
					<polygon style="fill-rule:evenodd;clip-rule:evenodd;fill:#1A1A1A;" points="19.226844787597656,23.22047482430935 19.324853897094727,23.22047482430935 19.324853897094727,22.599464997649193 19.27123260498047,22.650442704558372 19.226844787597656,22.608254060149193 " id="svg_72"/>
					<polygon style="fill-rule:evenodd;clip-rule:evenodd;fill:#F5F0F0;" points="18.910404205322266,20.938150987029076 19.142898559570312,20.70916996896267 19.275630950927734,20.938150987029076 18.975889205932617,21.25502835214138 " id="svg_73"/>
					<polygon style="fill-rule:evenodd;clip-rule:evenodd;fill:#F5F0F0;" points="19.632503509521484,20.938150987029076 19.40572166442871,20.70916996896267 19.275630950927734,20.938150987029076 19.568334579467773,21.25502835214138 " id="svg_74"/>
					<polygon style="fill-rule:evenodd;clip-rule:evenodd;fill:#323232;" points="18.975889205932617,21.25502835214138 19.275630950927734,21.096808061003685 19.568334579467773,21.25502835214138 19.275630950927734,20.938150987029076 " id="svg_75"/>
					<polygon style="fill-rule:evenodd;clip-rule:evenodd;fill:#323232;" points="19.275630950927734,20.938150987029076 19.125757217407227,21.096808061003685 19.275630950927734,21.51785145699978 19.425935745239258,21.096808061003685 " id="svg_76"/>
					<polygon style="fill-rule:evenodd;clip-rule:evenodd;fill:#323232;" points="19.222009658813477,21.367104157805443 19.32177734375,21.367104157805443 19.451868057250977,21.807041749358177 19.27123260498047,22.67593441903591 19.090599060058594,21.807041749358177 " id="svg_77"/>
					<ellipse style="fill-rule:evenodd;clip-rule:evenodd;fill:#1A1A1A;" cx="18.81151946925781" cy="25.97570585295338" rx="0.35116127465465374" ry="0.17623988027356288" id="svg_78"/>
					<ellipse style="fill-rule:evenodd;clip-rule:evenodd;fill:#1A1A1A;" cx="19.736229520690213" cy="25.97570585295338" rx="0.35116127465465374" ry="0.17623988027356288" id="svg_79"/>
					<path style="fill-rule:evenodd;clip-rule:evenodd;fill:#E7B791;" d="M21.57554126251957,22.538369158591635 c0.047905604192130614,0.04263159272143761 0.04219209176554655,0.07823117014861744 0.0017580038235644351,0.09976671698728203 c0.07911017206039953,0.05361911661871539 0.0940532045606972,0.15338583360599656 0.06109063286886381,0.19118291581263144 c-0.0641671395601017,0.07295715867792348 -0.19733592919510715,0.06109063286886381 -0.2962236442706058,-0.02637005735346649 c-0.09932721603139039,-0.08746069022233047 -0.12745527720842084,-0.21799247412198944 -0.06284863669242786,-0.2909496327999128 C21.343484757809076,22.439041942560248 21.476214046488188,22.450908468369313 21.57554126251957,22.538369158591635 z" id="svg_80"/>
					<path style="fill-rule:evenodd;clip-rule:evenodd;fill:#E7B791;" d="M17.006489325075634,22.68076746830036 c-0.04834510514802183,0.04263159272143761 -0.04219209176554655,0.07867067110450812 -0.0017580038235644351,0.10020621794317255 c-0.07911017206039953,0.05361911661871539 -0.0940532045606972,0.15338583360599656 -0.06109063286886381,0.19074341485674107 c0.0641671395601017,0.07295715867792348 0.19689642823921574,0.06109063286886381 0.2962236442706058,-0.02637005735346649 c0.09932721603139039,-0.08746069022233047 0.12745527720842084,-0.2175529731660981 0.06328813764831952,-0.2905101318440224 C17.238545829786148,22.58144025226897 17.105816541107025,22.593306778078023 17.006489325075634,22.68076746830036 z" id="svg_81"/>
					<path style="fill-rule:evenodd;clip-rule:evenodd;fill:#E7B791;" d="M19.275632760341416,20.937706677236225 c0.5849757722910637,0 1.061834309432912,-0.3674227991249671 1.061834309432912,-0.8183507798692378 c0,-0.4509279807442762 -0.47685853714185167,-0.8183507798692378 -1.061834309432912,-0.8183507798692378 c-0.5849757722910637,0 -1.061834309432912,0.3674227991249671 -1.061834309432912,0.8183507798692378 C18.213798450908506,20.570283878111262 18.691096489006245,20.937706677236225 19.275632760341416,20.937706677236225 z" id="svg_82"/>
					<g id="svg_83">
						<ellipse style="fill-rule:evenodd;clip-rule:evenodd;fill:#323232;" cx="18.953039836642624" cy="20.040244974206324" rx="0.0588931295564009" ry="0.1032827243724469" id="svg_84"/>
						<ellipse style="fill-rule:evenodd;clip-rule:evenodd;fill:#323232;" cx="19.59866584220884" cy="20.040244974206324" rx="0.0588931295564009" ry="0.1032827243724469" id="svg_85"/>
					</g>
					<path style="fill-rule:evenodd;clip-rule:evenodd;fill:#5E3A1D;" d="M19.78369586535154,19.16388081925972 c-0.1841509005183737,0.5739882483937865 -1.0710638295066253,1.008215192814197 -1.6094525004732303,0.7897832177363171 C18.2929086229689,19.193766884260327 19.20135709879582,18.756463433148674 19.78369586535154,19.16388081925972 z" id="svg_86"/>
					<path style="fill-rule:evenodd;clip-rule:evenodd;fill:#5E3A1D;" d="M19.6870056550555,19.13795026286215 c-0.10591973036975655,0.4465329711853651 0.33094421978600397,0.9414110475187487 0.669359955822155,0.9317420264891472 C20.410863729408145,19.70095098735866 20.077722004842684,19.20519390911349 19.6870056550555,19.13795026286215 z" id="svg_87"/>
					<path style="fill-rule:evenodd;clip-rule:evenodd;fill:#C79369;" d="M19.626354523142517,20.42349055884364 c-0.15294633265010601,0.029446564044704217 -0.5265221451575425,0.026809558309357565 -0.7010040246463146,0 C19.105545890411566,20.639725029142063 19.48263771056613,20.647196545392198 19.626354523142517,20.42349055884364 z" id="svg_88"/>
				</g>
			</g>
			<g id="svg_89">
				<path style="fill-rule:evenodd;clip-rule:evenodd;fill:#D9ECED;" d="M15.311334138203645,19.163001817347947 c0.9849216421519683,0 1.7914058962121477,1.2121436363476703 1.8586495424634935,2.7468809743194122 c-0.510260609789574,0.4017038736844722 -1.1558875139936085,0.6421108965569075 -1.8586495424634935,0.6421108965569075 c-0.7027620284698805,0 -1.348388932673914,-0.24040702287243615 -1.8586495424634935,-0.6421108965569075 C13.519928241991497,20.375584954651508 14.326412496051674,19.163001817347947 15.311334138203645,19.163001817347947 z" id="svg_90"/>
				<path style="fill-rule:evenodd;clip-rule:evenodd;fill:#E7B791;" d="M15.855875822552726,21.40225918761313 c0.3511612637569943,0.37269681059565896 0.5731092464820038,0.9871191469314223 1.1725885503174711,1.3853070129687666 l-0.0944927055165885,0.1358057953703519 c-0.510260609789574,-0.24831804007847563 -0.9849216421519683,-0.6451874032481457 -1.206430123921086,-0.9484430628130066 C15.61415029681261,21.818906093797892 15.736771063506232,21.27568291231649 15.855875822552726,21.40225918761313 z" id="svg_91"/>
				<path style="fill-rule:evenodd;clip-rule:evenodd;fill:#E7B791;" d="M15.310455136291862,21.576301566146007 c-0.4500489788324935,0.1331687896350052 -1.1756650570087088,0.6355183822185406 -1.620000523414617,1.202035114362175 l-0.1283342791202029,-0.10504072845797463 c0.2883126270645675,-0.489164563906803 0.8477973439139436,-1.0785353457567741 1.1677540398026687,-1.2754317739959893 C14.894687232018873,21.29677895819927 15.246727497687653,21.414565214378083 15.310455136291862,21.576301566146007 z" id="svg_92"/>
				<g id="svg_93">
					<path style="fill-rule:evenodd;clip-rule:evenodd;fill:#E7B791;" d="M15.203216903054425,25.985814656601473 c0.04175259080965533,-0.8974609519296385 0.08394468257520175,-1.7949219038592767 0.1252577724289653,-2.692822356744807 c-0.19294091963619653,0 -0.3867608411841748,0 -0.5797017608203685,0 c0.03999458698609056,0.8974609519296385 0.08086817588396362,1.7949219038592767 0.12086276287005422,2.692822356744807 C14.980829419373533,25.985814656601473 15.092023161213978,25.985814656601473 15.203216903054425,25.985814656601473 z" id="svg_94"/>
					<path style="fill-rule:evenodd;clip-rule:evenodd;fill:#E7B791;" d="M15.746879585491733,25.985814656601473 c0.04175259080965533,-0.8974609519296385 0.08350518161931042,-1.7949219038592767 0.1252577724289653,-2.692822356744807 c-0.19338042059208743,0 -0.3867608411841748,0 -0.5801412617762595,0 c0.04043408794198181,0.8974609519296385 0.08086817588396362,1.7949219038592767 0.12086276287005422,2.692822356744807 C15.524931602766717,25.985814656601473 15.636125344607171,25.985814656601473 15.746879585491733,25.985814656601473 z" id="svg_95"/>
				</g>
				<path style="fill-rule:evenodd;clip-rule:evenodd;fill:#E7B791;" d="M15.02477951496264,22.693952496977094 l-0.26326107257877224,-1.311910353334952 l0.3195171949328356,-0.1393218030174807 h0.4592784989062059 c0.10635923132564765,0.05449811853049749 0.2509550458138215,0.09141619882535022 0.3195171949328356,0.1634943555914932 l-0.2597450649316438,1.2877378007609404 H15.02477951496264 z" id="svg_96"/>
				<ellipse style="fill-rule:evenodd;clip-rule:evenodd;fill:#F5F0F0;" cx="15.744681517387074" cy="25.985813851851187" rx="0.33138372430459045" ry="0.16613135744978588" id="svg_97"/>
				<ellipse style="fill-rule:evenodd;clip-rule:evenodd;fill:#F5F0F0;" cx="14.872271851693133" cy="25.985813851851187" rx="0.3309442290070998" ry="0.16613135744978588" id="svg_98"/>
				<path style="fill-rule:evenodd;clip-rule:evenodd;fill:#E7B791;" d="M13.406097494415704,22.679009464476795 c-0.045708099412675215,0.04043408794198181 -0.0395550860301996,0.07383616058970578 -0.0017580038235644351,0.0944927055165885 c-0.07427566154559721,0.050542609927477423 -0.08877919309000362,0.14459581448817396 -0.057574625221735135,0.18019539191535391 c0.06109063286886381,0.06900165007490403 0.18590890434193846,0.057574625221735135 0.2795226079467453,-0.025051554485793198 c0.0936137036048059,-0.08262617970752838 0.12042326191416312,-0.20524694640114724 0.05933262904529967,-0.27424859647605054 C13.624968970449473,22.585835261827874 13.499711198020503,22.59638328476926 13.406097494415704,22.679009464476795 z" id="svg_99"/>
				<path style="fill-rule:evenodd;clip-rule:evenodd;fill:#E7B791;" d="M17.145811128093122,22.775260173816946 c0.045708099412675215,0.03999458698609056 0.0395550860301996,0.07383616058970578 0.0017580038235644351,0.0940532045606972 c0.07427566154559721,0.050542609927477423 0.08877919309000362,0.14459581448817396 0.057574625221735135,0.18019539191535391 c-0.060651131912972854,0.06900165007490403 -0.18590890434193846,0.057574625221735135 -0.2795226079467453,-0.024612053529901947 c-0.0936137036048059,-0.08262617970752838 -0.11998376095827253,-0.2056864473570381 -0.05933262904529967,-0.27424859647605054 C16.927379153015238,22.68164647021214 17.052197424488313,22.693073495065303 17.145811128093122,22.775260173816946 z" id="svg_100"/>
				<rect x="15.081035811679266" y="20.859914994630998" style="fill-rule:evenodd;clip-rule:evenodd;fill:#E7B791;" width="0.4592784800448709" height="0.6482639204179006" id="svg_101"/>
				<ellipse style="fill-rule:evenodd;clip-rule:evenodd;fill:#5E3A1D;" cx="15.311333548053435" cy="19.814782445797206" rx="0.612664355984085" ry="0.6065113170340223" id="svg_102"/>
				<ellipse style="fill-rule:evenodd;clip-rule:evenodd;fill:#F5F0F0;" cx="15.311333548053435" cy="19.94838943537514" rx="0.6926534955867228" ry="0.4729030176411698" id="svg_103"/>
				<path style="fill-rule:evenodd;clip-rule:evenodd;fill:#5E3A1D;" d="M15.311334138203645,20.421732555020068 c0.4241184224349178,0 0.7704451756771089,-0.19294091963619653 0.7704451756771089,-0.4298319348615018 c0,-0.2368910152253062 -0.3458872522863016,-0.4298319348615018 -0.7704451756771089,-0.4298319348615018 c-0.4241184224349178,0 -0.7704451756771089,0.19294091963619653 -0.7704451756771089,0.4298319348615018 C14.540888962526537,20.228791635383875 14.88721571576873,20.421732555020068 15.311334138203645,20.421732555020068 z" id="svg_104"/>
				<path style="fill-rule:evenodd;clip-rule:evenodd;fill:#E7B791;" d="M15.306499627688842,21.232611818639157 c0.5515736996433381,0 1.0020621794317213,-0.3467662541980833 1.0020621794317213,-0.7722031795006732 c0,-0.4254369253025921 -0.4500489788324935,-0.7722031795006732 -1.0020621794317213,-0.7722031795006732 c-0.5515736996433381,0 -1.0020621794317213,0.34720575515397467 -1.0020621794317213,0.7722031795006732 C14.30443744825712,20.885845564441077 14.754925928045507,21.232611818639157 15.306499627688842,21.232611818639157 z" id="svg_105"/>
				<g id="svg_106">
					<ellipse style="fill-rule:evenodd;clip-rule:evenodd;fill:#323232;" cx="15.611074527809139" cy="20.438433738881486" rx="0.055816623179518736" ry="0.09756921346524784" id="svg_107"/>
					<ellipse style="fill-rule:evenodd;clip-rule:evenodd;fill:#323232;" cx="15.00192550549382" cy="20.438433738881486" rx="0.055816623179518736" ry="0.09756921346524784" id="svg_108"/>
				</g>
				<path style="fill-rule:evenodd;clip-rule:evenodd;fill:#C79369;" d="M15.656781889534056,20.75179777289429 c-0.15250683169421436,0.029446564044704217 -0.5265221451575425,0.026809558309357565 -0.7010040246463146,0 C15.135973256803092,20.967592742236832 15.51350457791355,20.975064258486977 15.656781889534056,20.75179777289429 z" id="svg_109"/>
				<path style="fill-rule:evenodd;clip-rule:evenodd;fill:#F5F0F0;" d="M14.940395331431548,22.693952496977094 l-0.12921328103198557,-0.8517528525169646 c-0.002197504779455538,-0.010548022941386586 -0.0035160076471288616,-0.021096045882773175 -0.0035160076471288616,-0.03208356978005099 c0,-0.1107542408845592 0.1217417647818368,-0.20041243588634564 0.27205109169659475,-0.20041243588634564 c0.09800871316371704,0 0.1837113995624836,0.0382365831625263 0.23161700375461292,0.09537170742837059 c0.047905604192130614,-0.057135124265844064 0.133608290590897,-0.09537170742837059 0.23161700375461292,-0.09537170742837059 c0.15030932691475837,0 0.27205109169659475,0.08965819500178576 0.27205109169659475,0.20041243588634564 c0,0.010548022941386586 -0.000879001911782217,0.021096045882773175 -0.003076506691237762,0.031204567868268657 l-0.12613677434074705,0.8526318544287491 H14.940395331431548 z" id="svg_110"/>
				<path style="fill-rule:evenodd;clip-rule:evenodd;fill:#F5F0F0;" d="M15.311334138203645,22.59638328476926 c0.9849216421519683,0 1.7914058962121477,1.2121436363476703 1.8586495424634935,2.7468809743194122 c-0.510260609789574,0.4017038736844722 -1.1558875139936085,0.6421108965569075 -1.8586495424634935,0.6421108965569075 c-0.7027620284698805,0 -1.348388932673914,-0.24040702287243615 -1.8586495424634935,-0.6421108965569075 C13.519928241991497,23.808966422072835 14.326412496051674,22.59638328476926 15.311334138203645,22.59638328476926 z" id="svg_111"/>
				
					<ellipse transform="matrix(-0.09928326593580082,-0.42816183122911533,0.42816183122911533,-0.09928326593580082,-38.18855706273448,58.85566229084948) " style="fill-rule:evenodd;clip-rule:evenodd;fill:#E7B791;" cx="58.12332302330265" cy="136.07993868547297" rx="0.5180000066757184" ry="0.3310000002384177" id="svg_112"/>
				
					<ellipse transform="matrix(0.09928326593580082,-0.42816183122911533,0.42816183122911533,0.09928326593580082,-43.178299315157396,51.61369738996261) " style="fill-rule:evenodd;clip-rule:evenodd;fill:#E7B791;" cx="99.59764874552617" cy="115.84274437108577" rx="0.5180000066757184" ry="0.3319999873638144" id="svg_113"/>
				<g id="svg_114">
					<path style="fill-rule:evenodd;clip-rule:evenodd;fill:#5E3A1D;" d="M15.241453486216956,19.686447455814257 c0.054058617574606414,0.4311504377291757 0.656614428101314,0.8605428716347876 1.0930388773011803,0.7801141967067112 C16.356467411312693,19.913229949054063 15.73808956637391,19.47856350367776 15.241453486216956,19.686447455814257 z" id="svg_115"/>
					<path style="fill-rule:evenodd;clip-rule:evenodd;fill:#5E3A1D;" d="M15.358800241439882,19.686447455814257 c-0.05449811853049749,0.4311504377291757 -0.656614428101314,0.8605428716347876 -1.0930388773011803,0.7801141967067112 C14.243786316344147,19.913229949054063 14.86172466032704,19.47856350367776 15.358800241439882,19.686447455814257 z" id="svg_116"/>
				</g>
			</g>
			<g id="svg_117">
				<path style="fill-rule:evenodd;clip-rule:evenodd;fill:none;stroke:#F5F0F0;stroke-width:0.216;stroke-miterlimit:22.9256;" d="M13.22502310058856,22.79767472256739 c-0.14679331926763015,0.21052095787183991 -0.20129143779812741,0.5339936614076939 -0.14855132309119454,0.9018559614885497 " id="svg_118"/>
				<path style="fill-rule:evenodd;clip-rule:evenodd;fill:none;stroke:#F5F0F0;stroke-width:0.216;stroke-miterlimit:22.9256;" d="M13.329624328090642,22.841624818156497 c-0.03384157360361535,0.2549105544168418 0.06724364625134,0.5669562330995285 0.2830386155938733,0.8693328907526064 " id="svg_119"/>
			</g>
			<path style="fill-rule:evenodd;clip-rule:evenodd;fill:#F5F0F0;" d="M13.884274534425218,22.64604689278496 c-0.007471516250148828,0.008790019117822184 -0.015382533456188818,0.01670103632386211 -0.024172552574010898,0.02373305161811983 c0.017580038235644305,0.02329355066222881 0.029886065000595288,0.050542609927477423 0.035160076471288486,0.08086817588396362 c0.018019539191535348,0.10196422176673695 -0.05010310897158641,0.19909393301867162 -0.1520673307383238,0.21711347221020644 c-0.011427024853168806,0.002197504779455538 -0.022854049706337577,0.003076506691237762 -0.03384157360361535,0.003076506691237762 c-0.0013185028676733286,0.028567562132921966 -0.00922952007371329,0.057574625221735135 -0.025051554485793198,0.08438418353109264 c-0.051861112795150814,0.08965819500178576 -0.1665708622827294,0.12042326191416312 -0.2562290572845149,0.06856214911901297 c-0.009669021029604366,-0.006153013382475522 -0.01889854110331757,-0.012306026764951019 -0.027688560221139802,-0.019777543015099847 c-0.019777543015099847,0.021096045882773175 -0.044389596545001936,0.0382365831625263 -0.07339665963381503,0.0487846061039128 c-0.09712971125193515,0.035160076471288486 -0.20480744544525592,-0.014943032500297616 -0.23996752191654386,-0.11207274375223267 c-0.003955508603019978,-0.010548022941386586 -0.007032015294257702,-0.021975047794555433 -0.008790019117822184,-0.03296257169183298 c-0.02900706308881305,0.0035160076471288616 -0.058453627133517594,0.00043950095589110895 -0.08746069022233047,-0.009669021029604366 c-0.09756921220782591,-0.03559957742717963 -0.14767232117941176,-0.1428378106646095 -0.11207274375223267,-0.24040702287243615 c0.003955508603019978,-0.010548022941386586 0.00922952007371329,-0.021096045882773175 0.014503531544406516,-0.0307650669123776 c-0.024172552574010898,-0.01582203441207985 -0.04526859845678408,-0.03691808029485308 -0.060651131912972854,-0.0641671395601017 c-0.051861112795150814,-0.08965819500178576 -0.021096045882773175,-0.20436794448936496 0.06856214911901297,-0.2562290572845149 c0.010108521985495453,-0.005713512426584396 0.0202170439709909,-0.010548022941386586 0.0307650669123776,-0.01406403058851543 c-0.008790019117822184,-0.027688560221139802 -0.010548022941386586,-0.057574625221735135 -0.005274011470693282,-0.08790019117822154 c0.017580038235644305,-0.10196422176673695 0.11514925044347026,-0.17008686992985778 0.21711347221020644,-0.1520673307383238 c0.011427024853168806,0.0017580038235644351 0.02241454875044645,0.0048345105148021655 0.03296257169183298,0.008790019117822184 c0.010987523897277692,-0.026809558309357565 0.028567562132921966,-0.05098211088336856 0.052300613751041884,-0.07075965389846789 c0.07911017206039953,-0.06680414529544819 0.19733592919510715,-0.05625612235406161 0.26414007449055493,0.022854049706337577 c0.007471516250148828,0.008790019117822184 0.013624529632624336,0.018459040147426525 0.019777543015099847,0.027688560221139802 c0.025491055441684222,-0.013185028676733221 0.05493761948638857,-0.020656544926882056 0.08570268639876592,-0.020656544926882056 c0.10328272463441011,0 0.1876669081655024,0.08394468257520175 0.1876669081655024,0.1876669081655024 c0,0.011427024853168806 -0.0013185028676733286,0.022854049706337577 -0.003076506691237762,0.03384157360361535 c0.028567562132921966,0.006153013382475522 0.05537712044227958,0.019338042059208665 0.07911017206039953,0.03911558507430864 C13.940530656779286,22.44827146263397 13.951078679720672,22.566497219768667 13.884274534425218,22.64604689278496 z" id="svg_120"/>
		</g>
		<path style="fill-rule:evenodd;clip-rule:evenodd;fill:#5E3A1D;" d="M44.63483791525823,4.753962978458041 c-5.83393568849854,-0.28259911463798126 -15.290238255451573,8.905168368265587 -21.242839202040713,6.4395680057164855 C24.56678476831444,4.0221938868993465 31.976770884638498,0.04514973704072758 38.24537301851333,1.1342331057388901 C40.55890605032412,1.5363764803792472 42.66982914146909,2.2857256101735883 44.63483791525823,4.753962978458041 z" id="svg_121"/>
		<path style="fill-rule:evenodd;clip-rule:evenodd;fill:#5E3A1D;" d="M44.63307991143466,4.963604934418097 C36.42452055825648,3.0306797304090103 25.278776316858035,13.43103035061614 22.10557941532425,3.9496762291773124 c4.06933935059575,1.565062903928228 4.52993635236963,0.04922410705980401 8.408532288108638,-1.9812703091571056 C34.425230709907844,-0.07922903347645316 40.26356140796529,-0.5253225037059251 44.63307991143466,4.963604934418097 z" id="svg_122"/>
		<path style="fill-rule:evenodd;clip-rule:evenodd;fill:#5E3A1D;" d="M45.64744811763134,7.012558390782431 C38.240099007042645,2.982774126216884 24.745222156406232,10.073243047608091 24.18617694051274,0.09041833549751299 c3.511612637569937,2.583386618727921 4.356333474792642,1.2429087032600477 8.633117276568996,0.3076506691237755 C37.132117097241164,-0.5451000467210275 42.881229101252714,0.5655188688158017 45.64744811763134,7.012558390782431 z" id="svg_123"/>
		<path style="fill-rule:evenodd;clip-rule:evenodd;fill:#5E3A1D;" d="M55.71641501709657,15.463282770656615 c3.7568541709571734,0 6.8206153344740725,-3.032996096604522 6.8206153344740725,-6.75161368439917 c0,-3.7186175877946477 -3.0637611635168995,-6.75161368439917 -6.8206153344740725,-6.75161368439917 c-3.7564146700012833,0 -6.8201758335181815,3.032996096604522 -6.8201758335181815,6.75161368439917 C48.89667868453428,12.430286674052095 51.96000034709529,15.463282770656615 55.71641501709657,15.463282770656615 z" id="svg_124"/>
		<path style="fill-rule:evenodd;clip-rule:evenodd;fill:#F5F0F0;" d="M55.71641501709657,15.463282770656615 c4.2460187348639735,0 7.708846766329997,-2.365394144605932 7.708846766329997,-5.26566095253134 s-3.4628280314660236,-5.26566095253134 -7.708846766329997,-5.26566095253134 c-4.245579233908083,0 -7.708407265374107,2.365394144605932 -7.708407265374107,5.26566095253134 S51.47083578318849,15.463282770656615 55.71641501709657,15.463282770656615 z" id="svg_125"/>
		<path style="fill-rule:evenodd;clip-rule:evenodd;fill:#5E3A1D;" d="M55.716854518052465,15.463282770656615 c4.721998270094042,0 8.573784647523695,-2.1482806723957255 8.573784647523695,-4.781770400095232 c0,-2.6339292286553997 -3.8517863774296517,-4.781770400095232 -8.573784647523695,-4.781770400095232 c-4.7224377710499335,0 -8.574224148479587,2.1482806723957255 -8.574224148479587,4.781770400095232 C47.14306987052877,13.31500209826089 50.99441674700254,15.463282770656615 55.716854518052465,15.463282770656615 z" id="svg_126"/>
		<path style="fill-rule:evenodd;clip-rule:evenodd;fill:#E7B791;" d="M55.6605983956984,24.489753402748143 c5.3403761150328295,0 9.69670958982547,-3.861015897503366 9.69670958982547,-8.594441192450576 s-4.35589397383675,-8.594880693406466 -9.69670958982547,-8.594880693406466 c-5.3403761150328295,0 -9.696270088869579,3.861015897503366 -9.696270088869579,8.594880693406466 S50.320222280665575,24.489753402748143 55.6605983956984,24.489753402748143 z" id="svg_127"/>
		<g id="svg_128">
			<path style="fill-rule:evenodd;clip-rule:evenodd;fill:#323232;" d="M57.55616601845674,18.091058985929536 c0.3410527417714994,0 0.6192568468505688,-0.48696705912734634 0.6192568468505688,-1.0842488581833583 c0,-0.5972817990560134 -0.2782041050790713,-1.0842488581833583 -0.6192568468505688,-1.0842488581833583 c-0.3410527417714994,0 -0.61969634780646,0.48696705912734634 -0.61969634780646,1.0842488581833583 C56.93646967065028,17.604091926802184 57.215113276685244,18.091058985929536 57.55616601845674,18.091058985929536 z" id="svg_129"/>
			<path style="fill-rule:evenodd;clip-rule:evenodd;fill:#323232;" d="M50.77730327479233,18.091058985929536 c0.3410527417714994,0 0.6192568468505688,-0.48696705912734634 0.6192568468505688,-1.0842488581833583 c0,-0.5972817990560134 -0.2782041050790713,-1.0842488581833583 -0.6192568468505688,-1.0842488581833583 c-0.3410527417714994,0 -0.61969634780646,0.48696705912734634 -0.61969634780646,1.0842488581833583 C50.15760692698586,17.604091926802184 50.43625053302083,18.091058985929536 50.77730327479233,18.091058985929536 z" id="svg_130"/>
		</g>
		<path style="fill-rule:evenodd;clip-rule:evenodd;fill:#C79369;" d="M58.06642662824631,20.496008216565667 c-1.6999896973868023,0.3291862159624404 -5.861184747763788,0.3001791528736258 -7.7998234641994575,0 C52.268530018130846,22.900957447201808 56.46928015453805,22.984462628821117 58.06642662824631,20.496008216565667 z" id="svg_131"/>
		
			<ellipse transform="matrix(-0.09919536574462262,-0.42816183122911533,0.42816183122911533,-0.09919536574462262,4.869131835439209,83.94743111410655) " style="fill-rule:evenodd;clip-rule:evenodd;fill:#E7B791;" cx="129.8209422166712" cy="125.69207227707723" rx="5.761000156402587" ry="3.687000036239623" id="svg_132"/>
		
			<ellipse transform="matrix(0.09919536574462262,-0.42816183122911533,0.42816183122911533,0.09919536574462262,-0.7946290829382883,96.02355492903088) " style="fill-rule:evenodd;clip-rule:evenodd;fill:#E7B791;" cx="211.36292322276435" cy="105.71298838220034" rx="5.761000156402587" ry="3.687000036239623" id="svg_133"/>
		<g id="svg_134">
			<path style="fill-rule:evenodd;clip-rule:evenodd;fill:#5E3A1D;" d="M57.83656762831527,6.932569216810252 c0.7946177282511195,0.47158452567115755 -4.817369977522412,2.6400822420378733 -2.5460290374771777,2.916528343293379 c5.36059315900382,0.651779917586515 8.271407989870614,7.784880431699159 11.8151041972206,6.12049031173954 C66.82436217628837,10.296509533200776 61.76746417780531,6.114657937896902 57.83656762831527,6.932569216810252 z" id="svg_135"/>
			<path style="fill-rule:evenodd;clip-rule:evenodd;fill:#5E3A1D;" d="M63.996613026085015,9.24346524288569 c-9.3789503987162,0.3278677130947674 -13.657931705272008,8.983399538414204 -19.880386238778286,6.381993380494749 C44.72273810643645,7.1800082549769435 54.599643088177274,2.4685580078242886 63.996613026085015,9.24346524288569 z" id="svg_136"/>
		</g>
	</g>
</g><g id="svg_137">
</g><g id="svg_138">
</g><g id="svg_139">
</g><g id="svg_140">
</g><g id="svg_141">
</g><g id="svg_142">
</g><g id="svg_143">
</g><g id="svg_144">
</g><g id="svg_145">
</g><g id="svg_146">
</g><g id="svg_147">
</g><g id="svg_148">
</g><g id="svg_149">
</g><g id="svg_150">
</g><g id="svg_151">
</g></g></svg>