<svg xmlns="http://www.w3.org/2000/svg" xmlns:xlink="http://www.w3.org/1999/xlink" version="1.1" style="enable-background:new 0 0 303 303;" xml:space="preserve" width="80" height="80"><rect id="backgroundrect" width="100%" height="100%" x="0" y="0" fill="none" stroke="none" class="" style=""/>
















<g class="currentLayer" style=""><title>Layer 1</title><g class=""><g id="svg_1" class="">
	<g id="svg_2">
		<path style="fill:#ECA684;" d="M60.93559326809928,45.61498536857212 c-0.2064109213275217,0 -0.41589115003537774,-0.0419472008645775 -0.6166750078322858,-0.13018978804920495 c-0.7757674403796435,-0.3409488948322014 -1.1284820135031284,-1.2463945720309937 -0.7875331186709275,-2.022417788025665 l5.278441367330928,-12.01250175978568 c1.8093567007074174,-4.11824317756434 5.884885350562097,-6.779076900699662 10.383211092057909,-6.779076900699662 H77.72726239468142 c0.8473846125874583,0 1.5346536901674455,0.6872690775799888 1.5346536901674455,1.5346536901674455 s-0.6872690775799888,1.5346536901674455 -1.5346536901674455,1.5346536901674455 h-2.5344805693115364 c-3.2808338139629707,0 -6.253458011817313,1.9408253668317628 -7.573004409746288,4.944398414104482 l-5.278441367330928,12.012757535400707 C62.08837396503005,45.27224604443472 61.52566761196867,45.61498536857212 60.93559326809928,45.61498536857212 z" id="svg_3"/>
	</g>
	<g id="svg_4">
		<g id="svg_5">
			<path style="fill:#ECA684;" d="M1.7619047313928609,39.611164357022034 C1.7619047313928609,24.803802451826414 13.765710120267588,12.799997062951688 28.57332780107825,12.799997062951688 l0,26.811423069685386 L1.7619047313928609,39.611164357022034 z" id="svg_6"/>
		</g>
	</g>
	<g style="opacity:0.6;" id="svg_7">
		<path style="fill:#BDC3C7;" d="M10.175132036505826,39.332880487871684 c0,-11.868500088524968 7.71214634432147,-21.934037866718214 18.397939988957393,-25.462974027258255 v-1.0701651732767654 C13.765710120267588,12.799997062951688 1.7619047313928609,24.803802451826414 1.7619047313928609,39.611164357022034 l26.811423069685386,0 v-0.27828386915036357 L10.175132036505826,39.332880487871684 z" id="svg_8"/>
	</g>
	<g id="svg_9">
		<g id="svg_10">
			<path style="fill:#998272;" d="M54.26112859394603,66.42258742670742 H11.822326997285549 C6.266113312034312,66.42258742670742 1.7619047313928609,61.918123070450946 1.7619047313928609,56.361909385199716 v-16.75074502817767 h62.559646128445856 v16.75074502817767 C64.32155085983871,61.918123070450946 59.81734227919727,66.42258742670742 54.26112859394603,66.42258742670742 z" id="svg_11"/>
		</g>
	</g>
	<g style="opacity:0.6;" id="svg_12">
		<path style="fill:#BDC3C7;" d="M60.115065095089754,39.611164357022034 v13.086503567287863 c0,5.538309392199283 -4.489629370584862,10.027938762784146 -10.027938762784146,10.027938762784146 H7.583357729428038 c-1.519562928880798,0 -2.9593238658728906,-0.33992579237208986 -4.249967619303712,-0.9448351219130908 c1.7807098318242924,2.7897446331093887 4.9014281107797935,4.641560085911438 8.456709159667708,4.641560085911438 h42.503768602877564 c5.538309392199283,0 10.027938762784146,-4.489629370584862 10.027938762784146,-10.027938762784146 v-16.783228531286213 H60.115065095089754 z" id="svg_13"/>
	</g>
	<g id="svg_14">
		<g id="svg_15">
			<circle style="fill:#F3F3E9;" cx="15.167616921910346" cy="70.89098838158414" r="8.937056541442871" id="svg_16"/>
		</g>
	</g>
	<g id="svg_17">
		<g id="svg_18">
			<circle style="fill:#F3F3E9;" cx="50.915838013646436" cy="70.89098838158414" r="8.937056541442871" id="svg_19"/>
		</g>
	</g>
	<g id="svg_20">
		<circle style="fill:#998272;" cx="50.915838013646436" cy="70.89098838158414" r="3.2818567752838135" id="svg_21"/>
	</g>
	<g id="svg_22">
		<circle style="fill:#998272;" cx="15.306758528648132" cy="70.89098838158414" r="3.2818567752838135" id="svg_23"/>
	</g>
	<g style="opacity:0.6;" id="svg_24">
		<path style="fill:#BDC3C7;" d="M19.33368948381011,62.98445160950229 c0.8645215787943276,1.3758170332351152 1.3663533354790824,3.0025499448126074 1.3663533354790824,4.747451190532993 c0,4.9359578188085615 -4.001353721496586,8.937055764690118 -8.937055764690118,8.937055764690118 c-1.5047279432091811,0 -2.92172485046379,-0.37368817355577344 -4.166073217574559,-1.0305199529474396 c1.581204852102525,2.5160647250295267 4.3796458561228615,4.1896045741571255 7.570702429211037,4.1896045741571255 c4.935702043193533,0 8.937055764690118,-4.001353721496586 8.937055764690118,-8.937055764690118 C24.104672030925666,67.46001332126062 22.170241054469606,64.48227361110574 19.33368948381011,62.98445160950229 z" id="svg_25"/>
	</g>
	<g style="opacity:0.6;" id="svg_26">
		<path style="fill:#BDC3C7;" d="M55.081912542570585,62.98445160950229 c0.8645215787943276,1.3758170332351152 1.3663533354790824,3.0025499448126074 1.3663533354790824,4.747451190532993 c0,4.9359578188085615 -4.001353721496586,8.937055764690118 -8.937055764690118,8.937055764690118 c-1.5047279432091811,0 -2.92172485046379,-0.37368817355577344 -4.166073217574559,-1.0305199529474396 c1.581204852102525,2.5160647250295267 4.3796458561228615,4.1896045741571255 7.570702429211037,4.1896045741571255 c4.935702043193533,0 8.937055764690118,-4.001353721496586 8.937055764690118,-8.937055764690118 C59.85315086530117,67.46001332126062 57.91871988884511,64.48227361110574 55.081912542570585,62.98445160950229 z" id="svg_27"/>
	</g>
</g><g id="svg_28" class="">
</g><g id="svg_29" class="">
</g><g id="svg_30" class="">
</g><g id="svg_31" class="">
</g><g id="svg_32" class="">
</g><g id="svg_33" class="">
</g><g id="svg_34" class="">
</g><g id="svg_35" class="">
</g><g id="svg_36" class="">
</g><g id="svg_37" class="">
</g><g id="svg_38" class="">
</g><g id="svg_39" class="">
</g><g id="svg_40" class="">
</g><g id="svg_41" class="">
</g><g id="svg_42" class="">
</g></g></g></svg>